<svg width="119" height="84" viewBox="0 0 119 84" fill="none" xmlns="http://www.w3.org/2000/svg">
<path d="M63.6289 67H57.0898V23.6523L43.9766 28.4688V22.5625L62.6094 15.5664H63.6289V67ZM116.223 67H82.6836V62.3242L100.402 42.6367C103.027 39.6602 104.832 37.2461 105.816 35.3945C106.824 33.5195 107.328 31.5859 107.328 29.5938C107.328 26.9219 106.52 24.7305 104.902 23.0195C103.285 21.3086 101.129 20.4531 98.4336 20.4531C95.1992 20.4531 92.6797 21.3789 90.875 23.2305C89.0938 25.0586 88.2031 27.6133 88.2031 30.8945H81.6992C81.6992 26.1836 83.2109 22.375 86.2344 19.4688C89.2812 16.5625 93.3477 15.1094 98.4336 15.1094C103.191 15.1094 106.953 16.3633 109.719 18.8711C112.484 21.3555 113.867 24.6719 113.867 28.8203C113.867 33.8594 110.656 39.8594 104.234 46.8203L90.5234 61.6914H116.223V67Z" fill="#96CE4A"/>
<path d="M14.7363 35.873L21.7676 24.3008H28.0957L17.7246 39.9746L28.418 56H22.1484L14.8242 44.1348L7.5 56H1.20117L11.8945 39.9746L1.52344 24.3008H7.79297L14.7363 35.873ZM66.0059 56H60.5566V19.877L49.6289 23.8906V18.9688L65.1562 13.1387H66.0059V56ZM109.834 56H81.8848V52.1035L96.6504 35.6973C98.8379 33.2168 100.342 31.2051 101.162 29.6621C102.002 28.0996 102.422 26.4883 102.422 24.8281C102.422 22.6016 101.748 20.7754 100.4 19.3496C99.0527 17.9238 97.2559 17.2109 95.0098 17.2109C92.3145 17.2109 90.2148 17.9824 88.7109 19.5254C87.2266 21.0488 86.4844 23.1777 86.4844 25.9121H81.0645C81.0645 21.9863 82.3242 18.8125 84.8438 16.3906C87.3828 13.9687 90.7715 12.7578 95.0098 12.7578C98.9746 12.7578 102.109 13.8027 104.414 15.8926C106.719 17.9629 107.871 20.7266 107.871 24.1836C107.871 28.3828 105.195 33.3828 99.8438 39.1836L88.418 51.5762H109.834V56Z" fill="#322153"/>
</svg>
