<svg width="104" height="104" viewBox="0 0 104 104" fill="none" xmlns="http://www.w3.org/2000/svg">
<g clip-path="url(#clip0)">
<path d="M95.0359 44.8276V23.3104C95.0359 19.3494 91.8245 16.1379 87.8635 16.1379H66.3462C62.3853 16.1379 59.1738 19.3494 59.1738 23.3104V44.8276C59.1738 48.7886 62.3853 52 66.3462 52H87.8635C91.8245 52 95.0359 48.7886 95.0359 44.8276Z" fill="#FFB930"/>
<path d="M37.6559 95.0346C41.6169 95.0346 44.8283 91.8232 44.8283 87.8622V73.5174C44.8283 69.5564 41.6169 66.345 37.6559 66.345H23.3111C19.3501 66.345 16.1387 69.5564 16.1387 73.5174V87.8622C16.1387 91.8232 19.3501 95.0346 23.3111 95.0346H37.6559Z" fill="#FFB930"/>
<path d="M66.3444 46.6206H87.8617C92.8053 46.6206 96.8272 42.5987 96.8272 37.6551V16.1379C96.8272 11.1943 92.8053 7.17236 87.8617 7.17236H66.3444C61.4008 7.17236 57.3789 11.1943 57.3789 16.1379V37.6551C57.3789 42.5987 61.4008 46.6206 66.3444 46.6206ZM60.9651 16.1379C60.9651 13.1721 63.3786 10.7586 66.3444 10.7586H87.8617C90.8275 10.7586 93.241 13.1721 93.241 16.1379V37.6551C93.241 40.6209 90.8275 43.0344 87.8617 43.0344H66.3444C63.3786 43.0344 60.9651 40.6209 60.9651 37.6551V16.1379Z" fill="#322153"/>
<path d="M37.6561 89.6553C42.5996 89.6553 46.6216 85.6333 46.6216 80.6897V66.3449C46.6216 61.4013 42.5996 57.3794 37.6561 57.3794H23.3112C18.3676 57.3794 14.3457 61.4013 14.3457 66.3449V80.6897C14.3457 85.6333 18.3676 89.6553 23.3112 89.6553H37.6561ZM17.9319 80.6897V66.3449C17.9319 63.3791 20.3454 60.9656 23.3112 60.9656H37.6561C40.6218 60.9656 43.0354 63.3791 43.0354 66.3449V80.6897C43.0354 83.6555 40.6218 86.0691 37.6561 86.0691H23.3112C20.3454 86.0691 17.9319 83.6555 17.9319 80.6897Z" fill="#322153"/>
<path d="M95.0341 57.3794H66.3444C61.4008 57.3794 57.3789 61.4013 57.3789 66.3449V95.0346C57.3789 99.9781 61.4008 104 66.3444 104H95.0341C99.9777 104 104 99.9781 104 95.0346V66.3449C104 61.4013 99.9777 57.3794 95.0341 57.3794ZM100.413 95.0346C100.413 98.0004 97.9999 100.414 95.0341 100.414H66.3444C63.3786 100.414 60.9651 98.0004 60.9651 95.0346V66.3449C60.9651 63.3791 63.3786 60.9656 66.3444 60.9656H95.0341C97.9999 60.9656 100.413 63.3791 100.413 66.3449V95.0346Z" fill="#322153"/>
<path d="M8.96552 46.6207H37.6552C42.5988 46.6207 46.6207 42.5988 46.6207 37.6552V8.96552C46.6207 4.02193 42.5988 0 37.6552 0H8.96552C4.02193 0 0 4.02193 0 8.96552V37.6552C0 42.5988 4.02193 46.6207 8.96552 46.6207ZM3.58621 8.96552C3.58621 5.99972 5.99972 3.58621 8.96552 3.58621H37.6552C40.621 3.58621 43.0345 5.99972 43.0345 8.96552V37.6552C43.0345 40.621 40.621 43.0345 37.6552 43.0345H8.96552C5.99972 43.0345 3.58621 40.621 3.58621 37.6552V8.96552Z" fill="#322153"/>
<path d="M16.1374 39.4484C17.129 39.4484 17.9305 38.6468 17.9305 37.6553C17.9305 36.6637 17.129 35.8622 16.1374 35.8622C11.1293 35.8622 10.7814 30.9742 10.7581 30.4829V23.3104C10.7581 22.3189 9.95656 21.5173 8.96498 21.5173C7.97339 21.5173 7.17188 22.3189 7.17188 23.3104V30.5384C7.17188 33.6208 9.26443 39.4484 16.1374 39.4484Z" fill="#322153"/>
<path d="M73.5177 17.9309H80.6256C81.1814 17.9309 86.0694 18.3039 86.0694 23.3102C86.0694 24.3018 86.871 25.1033 87.8625 25.1033C88.8541 25.1033 89.6556 24.3018 89.6556 23.3102C89.6556 16.4391 83.8281 14.4416 80.6901 14.3447H73.5177C72.5261 14.3447 71.7246 15.1462 71.7246 16.1378C71.7246 17.1294 72.5261 17.9309 73.5177 17.9309Z" fill="#322153"/>
<path d="M95.0344 78.8965C94.0428 78.8965 93.2413 79.698 93.2413 80.6896V87.862C93.2413 89.5672 92.7823 90.8816 91.8786 91.7692C90.349 93.27 87.9409 93.2341 87.862 93.2413H80.6896C79.698 93.2413 78.8965 94.0428 78.8965 95.0344C78.8965 96.026 79.698 96.8275 80.6896 96.8275H87.8064C87.819 96.8275 87.8566 96.8275 87.9158 96.8275C88.5757 96.8275 91.9359 96.7092 94.3602 94.3602C95.9955 92.7715 96.8275 90.5857 96.8275 87.862V80.6896C96.8275 79.698 96.026 78.8965 95.0344 78.8965Z" fill="#322153"/>
<path d="M73.5163 64.5535C66.4246 64.5535 64.5508 70.4187 64.5508 73.5208C64.5508 74.5052 65.3469 75.3103 66.3331 75.3103C66.3367 75.3103 66.3403 75.3103 66.3439 75.3103C67.3265 75.3103 68.1262 74.5124 68.137 73.5297C68.1477 72.6296 68.4544 68.1379 73.5163 68.1379C74.5079 68.1379 75.3094 67.3364 75.3094 66.3448C75.3094 65.3532 74.5079 64.5535 73.5163 64.5535Z" fill="#322153"/>
</g>
<defs>
<clipPath id="clip0">
<rect width="104" height="104" fill="white"/>
</clipPath>
</defs>
</svg>
