<svg width="10" height="5" viewBox="0 0 10 5" fill="none" xmlns="http://www.w3.org/2000/svg">
<path d="M9.90008 0.515422L9.39911 0.0859386C9.33236 0.028586 9.25546 0 9.16853 0C9.08181 0 9.00494 0.028586 8.93819 0.0859386L5.00005 3.46219L1.06209 0.086029C0.995301 0.0286764 0.918439 9.02221e-05 0.831611 9.02221e-05C0.744747 9.02221e-05 0.667886 0.0286764 0.601132 0.086029L0.100235 0.515542C0.0333416 0.572774 0 0.638672 0 0.713147C0 0.787561 0.0334469 0.853459 0.100235 0.910691L4.76957 4.91412C4.83633 4.97138 4.91322 5 5.00005 5C5.08688 5 5.16364 4.97138 5.23036 4.91412L9.90008 0.910691C9.96683 0.853429 10 0.787531 10 0.713147C10 0.638672 9.96683 0.572774 9.90008 0.515422Z" fill="#212121"/>
</svg>
