<svg width="27" height="27" viewBox="0 0 27 27" fill="none" xmlns="http://www.w3.org/2000/svg">
<path d="M19.4676 9.21636C19.8796 9.62835 19.8796 10.2962 19.4676 10.708L12.3922 17.7836C11.9802 18.1954 11.3126 18.1954 10.9006 17.7836L7.53236 14.4152C7.12038 14.0034 7.12038 13.3356 7.53236 12.9238C7.94415 12.5118 8.61198 12.5118 9.02376 12.9238L11.6463 15.5463L17.976 9.21636C18.388 8.80458 19.0559 8.80458 19.4676 9.21636ZM27 13.5C27 20.9621 20.9611 27 13.5 27C6.03788 27 0 20.9611 0 13.5C0 6.03788 6.03891 0 13.5 0C20.9621 0 27 6.03891 27 13.5ZM24.8906 13.5C24.8906 7.2038 19.7954 2.10938 13.5 2.10938C7.2038 2.10938 2.10938 7.20463 2.10938 13.5C2.10938 19.7962 7.20463 24.8906 13.5 24.8906C19.7962 24.8906 24.8906 19.7954 24.8906 13.5Z" fill="#FFB930"/>
</svg>
