<svg width="116" height="109" viewBox="0 0 116 109" fill="none" xmlns="http://www.w3.org/2000/svg">
<path d="M114 76.0042H112V74.0042C112 72.8982 111.106 72.0042 110 72.0042C108.894 72.0042 108 72.8982 108 74.0042V76.0042H106C104.894 76.0042 104 76.8982 104 78.0042C104 79.1102 104.894 80.0042 106 80.0042H108V82.0042C108 83.1102 108.894 84.0042 110 84.0042C111.106 84.0042 112 83.1102 112 82.0042V80.0042H114C115.106 80.0042 116 79.1102 116 78.0042C116 76.8982 115.106 76.0042 114 76.0042Z" fill="#322153"/>
<path d="M18 0.00415039C16.894 0.00415039 16 0.898151 16 2.00415V4.00415H14C12.894 4.00415 12 4.89815 12 6.00415C12 7.11015 12.894 8.00415 14 8.00415H16V10.0042C16 11.1102 16.894 12.0042 18 12.0042C19.106 12.0042 20 11.1102 20 10.0042V8.00415H22C23.106 8.00415 24 7.11015 24 6.00415C24 4.89815 23.106 4.00415 22 4.00415H20V2.00415C20 0.898151 19.106 0.00415039 18 0.00415039Z" fill="#322153"/>
<path d="M39.3127 63.3183C45.5607 57.0703 45.5607 46.9383 39.3127 40.6903C33.0647 34.4423 11.0287 35.0343 11.0287 35.0343C11.0287 35.0343 10.4367 57.0703 16.6847 63.3183C22.9327 69.5663 33.0647 69.5663 39.3127 63.3183Z" fill="#86CCFF"/>
<path d="M104.97 10.0202C104.97 10.0202 82.934 9.42815 76.686 15.6762C70.438 21.9242 70.438 32.0562 76.686 38.3042C82.934 44.5522 93.066 44.5522 99.314 38.3042C105.562 32.0542 104.97 10.0202 104.97 10.0202Z" fill="#86CCFF"/>
<path d="M10 88.0042C13.308 88.0042 16 85.3122 16 82.0042C16 78.6962 13.308 76.0042 10 76.0042C6.692 76.0042 4 78.6962 4 82.0042C4 85.3122 6.692 88.0042 10 88.0042ZM10 80.0042C11.104 80.0042 12 80.9002 12 82.0042C12 83.1082 11.104 84.0042 10 84.0042C8.896 84.0042 8 83.1082 8 82.0042C8 80.9002 8.896 80.0042 10 80.0042Z" fill="#86CCFF"/>
<path d="M86 60.0042C82.692 60.0042 80 62.6962 80 66.0042C80 69.3122 82.692 72.0042 86 72.0042C89.308 72.0042 92 69.3122 92 66.0042C92 62.6962 89.308 60.0042 86 60.0042ZM86 68.0042C84.896 68.0042 84 67.1082 84 66.0042C84 64.9002 84.896 64.0042 86 64.0042C87.104 64.0042 88 64.9002 88 66.0042C88 67.1082 87.104 68.0042 86 68.0042Z" fill="#86CCFF"/>
<path d="M60 88.0183V66.8323L75.414 51.4183C76.196 50.6363 76.196 49.3723 75.414 48.5903C74.632 47.8083 73.368 47.8083 72.586 48.5903L60 61.1763V50.8323L77.354 33.4783C80.512 35.7983 84.25 36.9803 88 36.9803C92.61 36.9803 97.218 35.2263 100.728 31.7183C107.392 25.0543 107.032 4.31028 106.97 1.96828C106.94 0.906276 106.086 0.0502764 105.022 0.0202764C102.68 -0.0317236 81.936 -0.399724 75.27 6.26228C68.558 12.9743 68.284 23.7023 74.41 30.7643L60 45.1763V26.8323L67.414 19.4183C68.196 18.6363 68.196 17.3723 67.414 16.5903C66.632 15.8083 65.368 15.8083 64.586 16.5903L60 21.1763V10.0043C60 8.89828 59.106 8.00428 58 8.00428C56.894 8.00428 56 8.89828 56 10.0043V13.1763L51.414 8.59028C50.632 7.80828 49.368 7.80828 48.586 8.59028C47.804 9.37228 47.804 10.6363 48.586 11.4183L56 18.8323V69.1763L42.058 55.2343C47.706 48.1723 47.266 37.8163 40.728 31.2743C34.062 24.6083 13.308 24.9803 10.976 25.0323C9.914 25.0623 9.058 25.9163 9.028 26.9803C8.966 29.3223 8.606 50.0663 15.27 56.7323C18.78 60.2403 23.39 61.9943 27.998 61.9943C31.978 61.9943 35.956 60.6803 39.228 58.0623L56 74.8323V88.0183C28.484 88.3083 0 94.5903 0 106.004C0 107.11 0.894 108.004 2 108.004H114C115.106 108.004 116 107.11 116 106.004C116 94.5903 87.516 88.3083 60 88.0183ZM78.1 9.09028C82.288 4.90428 96.058 4.01228 102.992 3.99828C102.978 10.9343 102.086 24.7043 97.9 28.8883C93.098 33.6883 85.65 34.2623 80.212 30.6203L82.828 28.0043H94C95.106 28.0043 96 27.1103 96 26.0043C96 24.8983 95.106 24.0043 94 24.0043H86.828L95.07 15.7623C95.852 14.9803 95.852 13.7163 95.07 12.9343C94.288 12.1523 93.024 12.1523 92.242 12.9343L84 21.1763V14.0043C84 12.8983 83.106 12.0043 82 12.0043C80.894 12.0043 80 12.8983 80 14.0043V25.1763L77.24 27.9363C72.664 22.4423 72.946 14.2443 78.1 9.09028ZM18.1 53.9043C13.914 49.7163 13.022 35.9463 13.008 29.0123C19.944 29.0263 33.714 29.9183 37.9 34.1043C42.876 39.0823 43.3 46.8983 39.2 52.3783L36 49.1763V38.0043C36 36.8983 35.106 36.0043 34 36.0043C32.894 36.0043 32 36.8983 32 38.0043V45.1763L23.758 36.9343C22.976 36.1523 21.712 36.1523 20.93 36.9343C20.148 37.7163 20.148 38.9803 20.93 39.7623L29.172 48.0043H22C20.894 48.0043 20 48.8983 20 50.0043C20 51.1103 20.894 52.0043 22 52.0043H33.172L36.374 55.2063C30.892 59.3043 23.076 58.8803 18.1 53.9043ZM4.68 104.004C8.702 97.9903 30.188 92.0043 58 92.0043C85.812 92.0043 107.298 97.9903 111.32 104.004H4.68Z" fill="#322153"/>
</svg>
