<svg width="120" height="120" viewBox="0 0 120 120" fill="none" xmlns="http://www.w3.org/2000/svg">
<g clip-path="url(#clip0)">
<path d="M20.6647 49.6566H22.7338V51.7256C22.7338 52.8698 23.6587 53.7946 24.8028 53.7946C25.947 53.7946 26.8719 52.8698 26.8719 51.7256V49.6566H28.9409C30.0851 49.6566 31.01 48.7317 31.01 47.5875C31.01 46.4433 30.0851 45.5185 28.9409 45.5185H26.8719V43.4494C26.8719 42.3052 25.947 41.3804 24.8028 41.3804C23.6587 41.3804 22.7338 42.3052 22.7338 43.4494V45.5185H20.6647C19.5206 45.5185 18.5957 46.4433 18.5957 47.5875C18.5957 48.7317 19.5206 49.6566 20.6647 49.6566Z" fill="#322153"/>
<path d="M103.426 8.27563C102.282 8.27563 101.357 9.2005 101.357 10.3447V12.4137H99.2878C98.1436 12.4137 97.2188 13.3386 97.2188 14.4828C97.2188 15.627 98.1436 16.5518 99.2878 16.5518H101.357V18.6209C101.357 19.765 102.282 20.6899 103.426 20.6899C104.57 20.6899 105.495 19.765 105.495 18.6209V16.5518H107.564C108.708 16.5518 109.633 15.627 109.633 14.4828C109.633 13.3386 108.708 12.4137 107.564 12.4137H105.495V10.3447C105.495 9.2005 104.57 8.27563 103.426 8.27563Z" fill="#322153"/>
<path d="M62.0446 51.7256C71.1856 51.7256 78.5969 44.3143 78.5969 35.1733C78.5969 26.0322 62.0446 10.3447 62.0446 10.3447C62.0446 10.3447 45.4922 26.0322 45.4922 35.1733C45.4922 44.3143 52.9035 51.7256 62.0446 51.7256Z" fill="#96CE4A"/>
<path d="M12.3888 20.6899C15.811 20.6899 18.5959 17.905 18.5959 14.4828C18.5959 11.0606 15.811 8.27563 12.3888 8.27563C8.96658 8.27563 6.18164 11.0606 6.18164 14.4828C6.18164 17.905 8.96658 20.6899 12.3888 20.6899ZM12.3888 12.4137C13.5309 12.4137 14.4578 13.3407 14.4578 14.4828C14.4578 15.6249 13.5309 16.5518 12.3888 16.5518C11.2467 16.5518 10.3197 15.6249 10.3197 14.4828C10.3197 13.3407 11.2467 12.4137 12.3888 12.4137Z" fill="#96CE4A"/>
<path d="M113.772 105.521C113.772 102.099 110.987 99.3137 107.565 99.3137C104.142 99.3137 101.357 102.099 101.357 105.521C101.357 108.943 104.142 111.728 107.565 111.728C110.987 111.728 113.772 108.943 113.772 105.521ZM107.565 107.59C106.422 107.59 105.496 106.663 105.496 105.521C105.496 104.379 106.422 103.452 107.565 103.452C108.707 103.452 109.634 104.379 109.634 105.521C109.634 106.663 108.707 107.59 107.565 107.59Z" fill="#96CE4A"/>
<path d="M12.1349 80.471C10.9659 81.6358 10.3203 83.1876 10.3203 84.8366C10.3203 86.4877 10.9659 88.0375 12.1349 89.1982L41.2422 118.2C42.4464 119.4 44.0292 120 45.612 120C47.1948 120 48.7777 119.4 49.9839 118.2L55.8041 112.398C56.9732 111.234 57.6187 109.682 57.6187 108.033C57.6187 106.382 56.9732 104.832 55.8041 103.671L53.5075 101.385H81.3672C84.0176 101.385 86.6702 100.255 88.6358 98.2999L111.064 76.368C113.963 73.4797 113.868 69.4967 113.793 66.2939C113.781 65.7994 113.768 65.309 113.768 64.8269C113.768 64.3655 113.615 63.9207 113.332 63.5565C110.696 60.1716 107.303 58.1853 103.777 57.9639C100.816 57.7901 98.0023 58.8908 95.8133 61.0737L92.6476 64.14H42.9099C40.187 64.14 37.6069 65.218 35.6392 67.1773L27.4293 75.3997L26.6989 74.6714C24.2884 72.2693 20.3697 72.2651 17.9551 74.6714L12.1349 80.471ZM38.5649 70.105C39.7463 68.9278 41.2877 68.2781 42.9099 68.2781H88.3751L79.8278 76.5543H59.9774C58.8332 76.5543 57.9084 77.4791 57.9084 78.6233C57.9084 79.7675 58.8332 80.6923 59.9774 80.6923H80.6637C81.2017 80.6923 81.7169 80.4834 82.1017 80.1109L98.7162 64.0241C100.096 62.6503 101.768 61.9778 103.52 62.0916C105.639 62.224 107.841 63.4841 109.641 65.5738C109.645 65.8428 109.651 66.1159 109.657 66.3932C109.723 69.176 109.788 71.8017 108.157 73.4238L85.7288 95.3536C84.5225 96.5578 82.9314 97.2468 81.3693 97.2468H49.3549L30.3611 78.3233L38.5649 70.105ZM23.7774 77.6012L52.8868 106.603C53.2716 106.986 53.4827 107.495 53.4827 108.033C53.4827 108.575 53.2696 109.086 52.8847 109.469L47.0645 115.268C46.2638 116.065 44.9582 116.063 44.1637 115.27L15.0543 86.2664C14.6694 85.8836 14.4584 85.3746 14.4584 84.8366C14.4584 84.2946 14.6715 83.7835 15.0564 83.4007L20.8766 77.6012C21.6752 76.8046 22.9746 76.8046 23.7774 77.6012Z" fill="#322153"/>
<path d="M62.0452 53.7947C63.1894 53.7947 64.1143 52.8698 64.1143 51.7256V45.3964C73.4105 44.364 80.6667 36.4664 80.6667 26.8971C80.6667 17.1477 65.2295 2.23405 63.4667 0.566401C62.6701 -0.1888 61.4183 -0.1888 60.6217 0.566401C58.861 2.23405 43.4238 17.1477 43.4238 26.8971C43.4238 36.4664 50.68 44.364 59.9762 45.3964V51.7256C59.9762 52.8698 60.9011 53.7947 62.0452 53.7947ZM47.5619 26.8971C47.5619 20.7727 56.9823 10.0468 62.0452 4.96105C67.1082 10.0426 76.5286 20.7665 76.5286 26.8971C76.5286 34.178 71.1201 40.2052 64.1143 41.2149V36.0298L71.7842 28.3599C72.5932 27.5509 72.5932 26.2433 71.7842 25.4343C70.9752 24.6253 69.6676 24.6253 68.8586 25.4343L64.1143 30.1786V18.6209C64.1143 17.4767 63.1894 16.5518 62.0452 16.5518C60.9011 16.5518 59.9762 17.4767 59.9762 18.6209V30.1786L55.2319 25.4343C54.4229 24.6253 53.1152 24.6253 52.3062 25.4343C51.4972 26.2433 51.4972 27.5509 52.3062 28.3599L59.9762 36.0298V41.2149C52.9704 40.2052 47.5619 34.178 47.5619 26.8971Z" fill="#322153"/>
</g>
<defs>
<clipPath id="clip0">
<rect width="120" height="120" fill="white"/>
</clipPath>
</defs>
</svg>
