<svg width="150" height="101" viewBox="0 0 150 101" fill="none" xmlns="http://www.w3.org/2000/svg">
<path d="M144 89C140.692 89 138 91.692 138 95C138 98.308 140.692 101 144 101C147.308 101 150 98.308 150 95C150 91.692 147.308 89 144 89ZM144 97C142.896 97 142 96.104 142 95C142 93.896 142.896 93 144 93C145.104 93 146 93.896 146 95C146 96.104 145.104 97 144 97Z" fill="#FFB930"/>
<path d="M115 10C111.692 10 109 12.692 109 16C109 19.308 111.692 22 115 22C118.308 22 121 19.308 121 16C121 12.692 118.308 10 115 10ZM115 18C113.896 18 113 17.104 113 16C113 14.896 113.896 14 115 14C116.104 14 117 14.896 117 16C117 17.104 116.104 18 115 18Z" fill="#FFB930"/>
<path d="M6 82C2.692 82 0 84.692 0 88C0 91.308 2.692 94 6 94C9.308 94 12 91.308 12 88C12 84.692 9.308 82 6 82ZM6 90C4.896 90 4 89.104 4 88C4 86.896 4.896 86 6 86C7.104 86 8 86.896 8 88C8 89.104 7.104 90 6 90Z" fill="#FFB930"/>
<path d="M33.5 66.5C33.1495 75.7766 41.8293 86.758 35 86.5C23 84 17.6502 73.2765 18.0007 64C18.3512 54.7234 23.8055 50.2091 30.6348 50.4672C37.4641 50.7252 33.8505 57.2234 33.5 66.5Z" fill="#FFB930"/>
<path d="M80.7722 67.6096C79.58 76.8159 69.1998 86.2064 75.9774 87.0841C88.2258 86.6081 95.2793 76.9199 96.4715 67.7136C97.6637 58.5072 93.0332 53.1512 86.2557 52.2736C79.4781 51.3959 81.9644 58.4032 80.7722 67.6096Z" fill="#FFB930"/>
<path d="M46.6093 37.9637C48.1194 37.9637 49.3436 36.7395 49.3436 35.2294C49.3436 33.7193 48.1194 32.4951 46.6093 32.4951C45.0992 32.4951 43.875 33.7193 43.875 35.2294C43.875 36.7395 45.0992 37.9637 46.6093 37.9637Z" fill="#322153"/>
<path d="M86.9821 51.729C84.4803 49.2273 83.5954 46.6869 84.2764 43.9629C86.6509 34.4646 76.7125 25.0052 76.0061 24.3479C73.5474 16.2808 64.2511 13.3128 56.9983 15.9214C49.7267 13.3093 40.4456 16.2963 37.9916 24.3481C37.2852 25.0054 27.3468 34.4648 29.7213 43.963C30.4023 46.687 29.5174 49.2275 27.0156 51.7292C24.781 53.9636 22 56.7445 22 63.1193C22 67.8552 22.7407 73.8482 26.2168 75.8653C26.757 77.3386 26.4755 81.1519 29.159 82.6713C31.891 84.2181 34.5616 81.8565 35.7455 82.2191C36.3493 82.4025 37.4003 84.9934 40.5933 84.9934C45.0852 84.9934 52.6241 78.5583 52.6241 72.9626C52.6241 70.781 51.9713 69.1749 51.3513 67.8698C55.1572 68.8104 58.8377 68.8112 62.6467 67.8698C62.0267 69.1749 61.3738 70.781 61.3738 72.9626C61.3738 78.5454 68.9105 84.9934 73.4047 84.9934C76.6086 84.9934 77.6423 82.4044 78.2524 82.2191C79.4378 81.856 82.1077 84.2173 84.8389 82.6713C87.5218 81.1521 87.2413 77.3375 87.7812 75.8653C91.257 73.8481 91.9977 67.855 91.9977 63.1193C91.9977 56.7445 89.2167 53.9636 86.9821 51.729ZM51.5913 19.3699C53.7561 19.3069 55.6261 20.0643 55.9954 20.2241C56.5554 20.512 57.2311 20.5546 57.8494 20.2897C59.4987 19.5952 61.0534 19.33 62.4064 19.3697C64.7299 19.4345 72.3108 20.336 72.3108 29.2141C72.3108 33.2039 73.4658 36.5622 73.4052 39.0031C73.2189 46.4852 70.7371 49.3233 69.7012 51.1777C67.0315 52.6003 64.6034 53.1646 63.6808 52.5496C60.9038 50.6984 59.4024 48.2303 59.2086 45.2063C61.7501 44.2393 63.5611 41.7473 63.5611 39.6044C63.5611 36.8446 60.6787 34.6827 56.9989 34.6827C53.319 34.6827 50.4366 36.8446 50.4366 39.6044C50.4366 41.7473 52.2476 44.2393 54.7891 45.2063C54.5953 48.2303 53.0937 50.6984 50.3171 52.5495C49.3941 53.1647 46.9662 52.6005 44.2965 51.1777C43.2628 49.3267 40.7788 46.4863 40.5925 39.0033C40.5318 36.5605 41.6869 33.2077 41.6869 29.2141C41.6869 20.336 49.2678 19.4345 51.5913 19.3699ZM52.823 56.1351C54.5645 54.9606 55.9619 53.575 56.9989 52.01C58.0358 53.575 59.4332 54.9606 61.1747 56.1351C58.5136 58.1237 55.5698 58.1878 52.823 56.1351ZM56.9989 41.245C55.9269 41.245 55.0274 40.1883 54.8423 39.6919C55.7046 38.8543 58.2829 38.8443 59.1555 39.6919C58.9703 40.1882 58.0708 41.245 56.9989 41.245ZM45.2528 77.9257C43.2626 79.7831 41.33 80.6186 40.5931 80.6186C39.4312 80.6186 38.4631 76.0522 32.1248 78.5877C31.7234 78.7482 31.4705 78.7998 31.3329 78.8156C30.6226 77.3693 31.1035 73.4282 28.4469 72.0999C27.6458 71.6993 26.3749 68.9071 26.3749 63.1193C26.3749 58.5568 28.0228 56.9089 30.1089 54.8225C33.7381 51.1933 35.0357 47.1826 33.9655 42.9018C33.0285 39.1535 35.0017 35.1146 37.0919 32.1189C36.7482 34.6421 36.1633 36.8785 36.2188 39.112C36.3513 44.4319 37.5786 48.8697 39.8668 52.3017C42.2745 55.9135 44.498 63.517 45.8529 65.0598C46.1282 70.0481 51.454 72.1384 45.2528 77.9257ZM49.4213 62.4272C48.9315 62.0305 49.275 62.5909 46.9412 56.8932C47.1167 56.9335 47.2923 56.9699 47.4678 57.0021C52.9894 63.7055 61.0146 63.698 66.53 57.0021C66.7054 56.9697 66.881 56.9335 67.0565 56.8932C66.1569 59.0895 65.3607 61.1913 64.8881 62.1368C64.785 62.3143 64.0426 62.9458 62.0503 63.5022C56.4344 65.0703 51.0537 63.6043 49.4213 62.4272ZM85.5509 72.0999C82.8929 73.4288 83.375 77.3697 82.6649 78.8156C82.5274 78.7998 82.2744 78.7482 81.8731 78.5877C75.5385 76.0537 74.561 80.6186 73.4047 80.6186C72.6678 80.6186 70.7352 79.7831 68.7451 77.9257C62.5453 72.1398 67.8696 70.0497 68.1449 65.0598C68.4053 64.7633 68.6261 64.4429 68.7989 64.0975C69.9419 61.8119 72.1085 55.3357 74.1311 52.3017C76.4191 48.8697 77.6465 44.4321 77.779 39.1118C77.8345 36.8756 77.2536 34.6657 76.9072 32.1279C79.0491 35.2162 80.9412 39.2669 80.0323 42.9017C78.9621 47.1826 80.2597 51.1931 83.8889 54.8223C85.9749 56.9089 87.6228 58.5567 87.6228 63.1193C87.6228 68.9071 86.352 71.6993 85.5509 72.0999Z" fill="#322153"/>
<path d="M67.3886 37.9637C68.8987 37.9637 70.1229 36.7395 70.1229 35.2294C70.1229 33.7193 68.8987 32.4951 67.3886 32.4951C65.8785 32.4951 64.6543 33.7193 64.6543 35.2294C64.6543 36.7395 65.8785 37.9637 67.3886 37.9637Z" fill="#322153"/>
<path d="M16 12C19.308 12 22 9.308 22 6C22 2.692 19.308 0 16 0C12.692 0 10 2.692 10 6C10 9.308 12.692 12 16 12ZM16 4C17.104 4 18 4.896 18 6C18 7.104 17.104 8 16 8C14.896 8 14 7.104 14 6C14 4.896 14.896 4 16 4Z" fill="#FFB930"/>
<path d="M121.384 85.7256C130.525 85.7256 137.937 78.3143 137.937 69.1733C137.937 60.0322 121.384 44.3447 121.384 44.3447C121.384 44.3447 104.832 60.0322 104.832 69.1733C104.832 78.3143 112.243 85.7256 121.384 85.7256Z" fill="#FFB930"/>
<path d="M121.385 87.7947C122.529 87.7947 123.454 86.8698 123.454 85.7256V79.3964C132.75 78.364 140.007 70.4664 140.007 60.8971C140.007 51.1477 124.569 36.2341 122.807 34.5664C122.01 33.8112 120.758 33.8112 119.962 34.5664C118.201 36.2341 102.764 51.1477 102.764 60.8971C102.764 70.4664 110.02 78.364 119.316 79.3964V85.7256C119.316 86.8698 120.241 87.7947 121.385 87.7947ZM106.902 60.8971C106.902 54.7727 116.322 44.0468 121.385 38.9611C126.448 44.0426 135.868 54.7665 135.868 60.8971C135.868 68.178 130.46 74.2052 123.454 75.2149V70.0298L131.124 62.3599C131.933 61.5509 131.933 60.2433 131.124 59.4343C130.315 58.6253 129.007 58.6253 128.198 59.4343L123.454 64.1786V52.6209C123.454 51.4767 122.529 50.5518 121.385 50.5518C120.241 50.5518 119.316 51.4767 119.316 52.6209V64.1786L114.572 59.4343C113.763 58.6253 112.455 58.6253 111.646 59.4343C110.837 60.2433 110.837 61.5509 111.646 62.3599L119.316 70.0298V75.2149C112.31 74.2052 106.902 68.178 106.902 60.8971Z" fill="#322153"/>
</svg>
