<svg width="116" height="55" viewBox="0 0 116 55" fill="none" xmlns="http://www.w3.org/2000/svg">
<path d="M62.6289 55H56.0898V11.6523L42.9766 16.4688V10.5625L61.6094 3.56641H62.6289V55ZM115.223 55H81.6836V50.3242L99.4023 30.6367C102.027 27.6602 103.832 25.2461 104.816 23.3945C105.824 21.5195 106.328 19.5859 106.328 17.5938C106.328 14.9219 105.52 12.7305 103.902 11.0195C102.285 9.30859 100.129 8.45312 97.4336 8.45312C94.1992 8.45312 91.6797 9.37891 89.875 11.2305C88.0938 13.0586 87.2031 15.6133 87.2031 18.8945H80.6992C80.6992 14.1836 82.2109 10.375 85.2344 7.46875C88.2812 4.5625 92.3477 3.10938 97.4336 3.10938C102.191 3.10938 105.953 4.36328 108.719 6.87109C111.484 9.35547 112.867 12.6719 112.867 16.8203C112.867 21.8594 109.656 27.8594 103.234 34.8203L89.5234 49.6914H115.223V55Z" fill="#86CCFF"/>
<path d="M13.7363 23.873L20.7676 12.3008H27.0957L16.7246 27.9746L27.418 44H21.1484L13.8242 32.1348L6.5 44H0.201172L10.8945 27.9746L0.523438 12.3008H6.79297L13.7363 23.873ZM65.0059 44H59.5566V7.87695L48.6289 11.8906V6.96875L64.1562 1.13867H65.0059V44ZM108.834 44H80.8848V40.1035L95.6504 23.6973C97.8379 21.2168 99.3418 19.2051 100.162 17.6621C101.002 16.0996 101.422 14.4883 101.422 12.8281C101.422 10.6016 100.748 8.77539 99.4004 7.34961C98.0527 5.92383 96.2559 5.21094 94.0098 5.21094C91.3145 5.21094 89.2148 5.98242 87.7109 7.52539C86.2266 9.04883 85.4844 11.1777 85.4844 13.9121H80.0645C80.0645 9.98633 81.3242 6.8125 83.8438 4.39062C86.3828 1.96875 89.7715 0.757812 94.0098 0.757812C97.9746 0.757812 101.109 1.80273 103.414 3.89258C105.719 5.96289 106.871 8.72656 106.871 12.1836C106.871 16.3828 104.195 21.3828 98.8438 27.1836L87.418 39.5762H108.834V44Z" fill="#322153"/>
</svg>
