<svg width="159" height="106" viewBox="0 0 159 106" fill="none" xmlns="http://www.w3.org/2000/svg">
<rect width="159" height="106" fill="#E5E5E5"/>
<g clip-path="url(#clip0)">
<rect x="-1213" y="-3835" width="1900" height="5514" fill="white"/>
<rect x="-1213" y="-863" width="1900" height="1428" fill="white"/>
<rect x="-747.5" y="-230.5" width="1069" height="289" rx="19.5" stroke="#4EB3FC"/>
<rect x="-778" y="-231" width="911" height="358" rx="20" fill="white"/>
<rect x="-847.5" y="55.5" width="869" height="359" rx="19.5" stroke="#4EB3FC"/>
<rect x="-590" y="1" width="723" height="358" rx="20" fill="white"/>
<g filter="url(#filter0_d)">
<path d="M-748 -53C-748 -58.5228 -743.523 -63 -738 -63H222V177H-738C-743.523 177 -748 172.523 -748 167V-53Z" fill="white"/>
</g>
<path d="M55.4993 19.0001C55.4993 19.0001 65.6467 15.3819 75.998 21.8819C86.3493 28.3819 88.4999 36.382 88.4999 36.382" stroke="#86CCFF" stroke-width="4"/>
<path d="M153 89C149.692 89 147 91.692 147 95C147 98.308 149.692 101 153 101C156.308 101 159 98.308 159 95C159 91.692 156.308 89 153 89ZM153 97C151.896 97 151 96.104 151 95C151 93.896 151.896 93 153 93C154.104 93 155 93.896 155 95C155 96.104 154.104 97 153 97Z" fill="#86CCFF"/>
<path d="M124 10C120.692 10 118 12.692 118 16C118 19.308 120.692 22 124 22C127.308 22 130 19.308 130 16C130 12.692 127.308 10 124 10ZM124 18C122.896 18 122 17.104 122 16C122 14.896 122.896 14 124 14C125.104 14 126 14.896 126 16C126 17.104 125.104 18 124 18Z" fill="#86CCFF"/>
<path d="M6 82C2.692 82 0 84.692 0 88C0 91.308 2.692 94 6 94C9.308 94 12 91.308 12 88C12 84.692 9.308 82 6 82ZM6 90C4.896 90 4 89.104 4 88C4 86.896 4.896 86 6 86C7.104 86 8 86.896 8 88C8 89.104 7.104 90 6 90Z" fill="#86CCFF"/>
<path d="M25 12C28.308 12 31 9.308 31 6C31 2.692 28.308 0 25 0C21.692 0 19 2.692 19 6C19 9.308 21.692 12 25 12ZM25 4C26.104 4 27 4.896 27 6C27 7.104 26.104 8 25 8C23.896 8 23 7.104 23 6C23 4.896 23.896 4 25 4Z" fill="#86CCFF"/>
<mask id="path-13-outside-1" maskUnits="userSpaceOnUse" x="18" y="9" width="84" height="97" fill="black">
<rect fill="white" x="18" y="9" width="84" height="97"/>
<path d="M101.062 99.6642C96.8388 94.9877 96.6601 83.0715 97.1599 70.7419C98.9995 69.0141 100.152 66.5627 100.152 63.8459C100.152 61.4601 99.2627 59.2793 97.8008 57.6128C98.4151 45.0372 98.741 36.6275 94.752 28.8622C92.0307 23.5637 87.6273 19.1367 81.6644 15.7041C74.7147 11.7036 66.7872 9.73987 58.7381 10.0276C51.6678 10.2796 45.0855 13.5736 40.5464 19.1004C34.6854 19.449 29.3538 22.6386 26.4853 27.5685C26.2389 27.9917 26.0007 28.4268 25.7772 28.862C21.786 36.6315 22.1116 45.0406 22.7259 57.6149C21.2649 59.2811 20.3766 61.461 20.3766 63.8459C20.3766 66.5618 21.5282 69.0126 23.3668 70.7403C23.8666 83.0708 23.6879 94.9879 19.4648 99.6645C19.0655 100.107 18.9104 100.718 19.0506 101.297C19.1908 101.876 19.6081 102.349 20.1654 102.559C24.9188 104.355 29.5223 104.998 33.6772 104.998C37.9934 104.998 41.8253 104.304 44.8335 103.491C50.0606 102.077 53.7474 100.093 55.0053 99.3609C56.7173 99.643 58.4735 99.7925 60.2642 99.7925C62.0544 99.7925 63.8101 99.6433 65.5217 99.3611C66.7798 100.094 70.4664 102.077 75.693 103.491C79.7058 104.576 83.426 105 86.7914 105C92.3975 105 97.0184 103.822 100.361 102.559C100.919 102.348 101.336 101.876 101.476 101.296C101.616 100.718 101.461 100.107 101.062 99.6642ZM92.4897 67.5671V58.6172C92.4902 58.5936 92.4902 58.5697 92.4897 58.5458V58.2715C94.8408 59.0339 96.5461 61.2439 96.5461 63.8456C96.5461 66.4681 94.8142 68.6937 92.434 69.4387C92.4696 68.8192 92.4897 68.1957 92.4897 67.5671ZM28.9844 30.5096C29.1794 30.1303 29.3869 29.7508 29.6017 29.3819C31.9762 25.301 36.5178 22.731 41.4539 22.6749C41.4595 22.6749 41.4731 22.6747 41.4789 22.6745C42.0265 22.663 42.539 22.4034 42.8723 21.9689C46.763 16.8937 52.5927 13.8546 58.8665 13.6308C66.2399 13.3678 73.5014 15.1655 79.8652 18.8288C85.2162 21.9092 89.1457 25.8391 91.5443 30.5096C94.7372 36.7248 94.8318 43.4856 94.3083 55.1024C93.7287 54.8615 93.1202 54.6774 92.4897 54.555V52.7218C92.4897 51.7261 91.6825 50.9189 90.6869 50.9189C89.6913 50.9189 88.884 51.7261 88.884 52.7218V56.8162C64.0503 57.0814 50.6066 45.1199 47.0195 41.3775C46.5974 40.9371 45.9813 40.7402 45.3827 40.8535C44.7835 40.9669 44.2823 41.3754 44.0504 41.9395C41.4307 48.312 36.8535 51.6461 29.6463 52.4317C28.7316 52.5313 28.0388 53.3038 28.0388 54.224V54.5548C27.4076 54.6771 26.7985 54.8615 26.2184 55.1028C25.6947 43.4888 25.79 36.7282 28.9844 30.5096ZM28.0943 69.4389C25.7141 68.6939 23.9823 66.4683 23.9823 63.8459C23.9823 61.2439 25.6875 59.0339 28.0386 58.2718V67.5671C28.0386 68.1957 28.0587 68.8192 28.0943 69.4389ZM23.6902 99.9482C26.9051 94.4608 27.4626 85.3387 27.0538 72.8911C27.5325 73.0389 28.0278 73.148 28.5353 73.2183C30.5858 84.7625 38.8042 94.1999 49.6498 97.9944C44.4335 100.239 34.5608 103.213 23.6902 99.9482ZM60.2642 96.1868C44.4831 96.1868 31.6443 83.348 31.6443 67.5669L31.6445 55.7974C38.4058 54.6848 43.2196 51.3563 46.2711 45.677C48.8685 48.0466 53.0682 51.2964 58.9869 54.1446C67.8861 58.4273 77.9361 60.5395 88.884 60.4225V67.5669C88.884 83.3482 76.0452 96.1868 60.2642 96.1868ZM76.7528 100.042C74.4411 99.4238 72.4465 98.6772 70.872 97.9966C81.721 94.2039 89.9423 84.765 91.9932 73.2183C92.5003 73.148 92.9949 73.0392 93.4731 72.8916C93.0641 85.3408 93.6214 94.4628 96.8379 99.95C90.471 101.873 83.7262 101.906 76.7528 100.042Z"/>
</mask>
<path d="M101.062 99.6642C96.8388 94.9877 96.6601 83.0715 97.1599 70.7419C98.9995 69.0141 100.152 66.5627 100.152 63.8459C100.152 61.4601 99.2627 59.2793 97.8008 57.6128C98.4151 45.0372 98.741 36.6275 94.752 28.8622C92.0307 23.5637 87.6273 19.1367 81.6644 15.7041C74.7147 11.7036 66.7872 9.73987 58.7381 10.0276C51.6678 10.2796 45.0855 13.5736 40.5464 19.1004C34.6854 19.449 29.3538 22.6386 26.4853 27.5685C26.2389 27.9917 26.0007 28.4268 25.7772 28.862C21.786 36.6315 22.1116 45.0406 22.7259 57.6149C21.2649 59.2811 20.3766 61.461 20.3766 63.8459C20.3766 66.5618 21.5282 69.0126 23.3668 70.7403C23.8666 83.0708 23.6879 94.9879 19.4648 99.6645C19.0655 100.107 18.9104 100.718 19.0506 101.297C19.1908 101.876 19.6081 102.349 20.1654 102.559C24.9188 104.355 29.5223 104.998 33.6772 104.998C37.9934 104.998 41.8253 104.304 44.8335 103.491C50.0606 102.077 53.7474 100.093 55.0053 99.3609C56.7173 99.643 58.4735 99.7925 60.2642 99.7925C62.0544 99.7925 63.8101 99.6433 65.5217 99.3611C66.7798 100.094 70.4664 102.077 75.693 103.491C79.7058 104.576 83.426 105 86.7914 105C92.3975 105 97.0184 103.822 100.361 102.559C100.919 102.348 101.336 101.876 101.476 101.296C101.616 100.718 101.461 100.107 101.062 99.6642ZM92.4897 67.5671V58.6172C92.4902 58.5936 92.4902 58.5697 92.4897 58.5458V58.2715C94.8408 59.0339 96.5461 61.2439 96.5461 63.8456C96.5461 66.4681 94.8142 68.6937 92.434 69.4387C92.4696 68.8192 92.4897 68.1957 92.4897 67.5671ZM28.9844 30.5096C29.1794 30.1303 29.3869 29.7508 29.6017 29.3819C31.9762 25.301 36.5178 22.731 41.4539 22.6749C41.4595 22.6749 41.4731 22.6747 41.4789 22.6745C42.0265 22.663 42.539 22.4034 42.8723 21.9689C46.763 16.8937 52.5927 13.8546 58.8665 13.6308C66.2399 13.3678 73.5014 15.1655 79.8652 18.8288C85.2162 21.9092 89.1457 25.8391 91.5443 30.5096C94.7372 36.7248 94.8318 43.4856 94.3083 55.1024C93.7287 54.8615 93.1202 54.6774 92.4897 54.555V52.7218C92.4897 51.7261 91.6825 50.9189 90.6869 50.9189C89.6913 50.9189 88.884 51.7261 88.884 52.7218V56.8162C64.0503 57.0814 50.6066 45.1199 47.0195 41.3775C46.5974 40.9371 45.9813 40.7402 45.3827 40.8535C44.7835 40.9669 44.2823 41.3754 44.0504 41.9395C41.4307 48.312 36.8535 51.6461 29.6463 52.4317C28.7316 52.5313 28.0388 53.3038 28.0388 54.224V54.5548C27.4076 54.6771 26.7985 54.8615 26.2184 55.1028C25.6947 43.4888 25.79 36.7282 28.9844 30.5096ZM28.0943 69.4389C25.7141 68.6939 23.9823 66.4683 23.9823 63.8459C23.9823 61.2439 25.6875 59.0339 28.0386 58.2718V67.5671C28.0386 68.1957 28.0587 68.8192 28.0943 69.4389ZM23.6902 99.9482C26.9051 94.4608 27.4626 85.3387 27.0538 72.8911C27.5325 73.0389 28.0278 73.148 28.5353 73.2183C30.5858 84.7625 38.8042 94.1999 49.6498 97.9944C44.4335 100.239 34.5608 103.213 23.6902 99.9482ZM60.2642 96.1868C44.4831 96.1868 31.6443 83.348 31.6443 67.5669L31.6445 55.7974C38.4058 54.6848 43.2196 51.3563 46.2711 45.677C48.8685 48.0466 53.0682 51.2964 58.9869 54.1446C67.8861 58.4273 77.9361 60.5395 88.884 60.4225V67.5669C88.884 83.3482 76.0452 96.1868 60.2642 96.1868ZM76.7528 100.042C74.4411 99.4238 72.4465 98.6772 70.872 97.9966C81.721 94.2039 89.9423 84.765 91.9932 73.2183C92.5003 73.148 92.9949 73.0392 93.4731 72.8916C93.0641 85.3408 93.6214 94.4628 96.8379 99.95C90.471 101.873 83.7262 101.906 76.7528 100.042Z" fill="#322153"/>
<path d="M101.062 99.6642C96.8388 94.9877 96.6601 83.0715 97.1599 70.7419C98.9995 69.0141 100.152 66.5627 100.152 63.8459C100.152 61.4601 99.2627 59.2793 97.8008 57.6128C98.4151 45.0372 98.741 36.6275 94.752 28.8622C92.0307 23.5637 87.6273 19.1367 81.6644 15.7041C74.7147 11.7036 66.7872 9.73987 58.7381 10.0276C51.6678 10.2796 45.0855 13.5736 40.5464 19.1004C34.6854 19.449 29.3538 22.6386 26.4853 27.5685C26.2389 27.9917 26.0007 28.4268 25.7772 28.862C21.786 36.6315 22.1116 45.0406 22.7259 57.6149C21.2649 59.2811 20.3766 61.461 20.3766 63.8459C20.3766 66.5618 21.5282 69.0126 23.3668 70.7403C23.8666 83.0708 23.6879 94.9879 19.4648 99.6645C19.0655 100.107 18.9104 100.718 19.0506 101.297C19.1908 101.876 19.6081 102.349 20.1654 102.559C24.9188 104.355 29.5223 104.998 33.6772 104.998C37.9934 104.998 41.8253 104.304 44.8335 103.491C50.0606 102.077 53.7474 100.093 55.0053 99.3609C56.7173 99.643 58.4735 99.7925 60.2642 99.7925C62.0544 99.7925 63.8101 99.6433 65.5217 99.3611C66.7798 100.094 70.4664 102.077 75.693 103.491C79.7058 104.576 83.426 105 86.7914 105C92.3975 105 97.0184 103.822 100.361 102.559C100.919 102.348 101.336 101.876 101.476 101.296C101.616 100.718 101.461 100.107 101.062 99.6642ZM92.4897 67.5671V58.6172C92.4902 58.5936 92.4902 58.5697 92.4897 58.5458V58.2715C94.8408 59.0339 96.5461 61.2439 96.5461 63.8456C96.5461 66.4681 94.8142 68.6937 92.434 69.4387C92.4696 68.8192 92.4897 68.1957 92.4897 67.5671ZM28.9844 30.5096C29.1794 30.1303 29.3869 29.7508 29.6017 29.3819C31.9762 25.301 36.5178 22.731 41.4539 22.6749C41.4595 22.6749 41.4731 22.6747 41.4789 22.6745C42.0265 22.663 42.539 22.4034 42.8723 21.9689C46.763 16.8937 52.5927 13.8546 58.8665 13.6308C66.2399 13.3678 73.5014 15.1655 79.8652 18.8288C85.2162 21.9092 89.1457 25.8391 91.5443 30.5096C94.7372 36.7248 94.8318 43.4856 94.3083 55.1024C93.7287 54.8615 93.1202 54.6774 92.4897 54.555V52.7218C92.4897 51.7261 91.6825 50.9189 90.6869 50.9189C89.6913 50.9189 88.884 51.7261 88.884 52.7218V56.8162C64.0503 57.0814 50.6066 45.1199 47.0195 41.3775C46.5974 40.9371 45.9813 40.7402 45.3827 40.8535C44.7835 40.9669 44.2823 41.3754 44.0504 41.9395C41.4307 48.312 36.8535 51.6461 29.6463 52.4317C28.7316 52.5313 28.0388 53.3038 28.0388 54.224V54.5548C27.4076 54.6771 26.7985 54.8615 26.2184 55.1028C25.6947 43.4888 25.79 36.7282 28.9844 30.5096ZM28.0943 69.4389C25.7141 68.6939 23.9823 66.4683 23.9823 63.8459C23.9823 61.2439 25.6875 59.0339 28.0386 58.2718V67.5671C28.0386 68.1957 28.0587 68.8192 28.0943 69.4389ZM23.6902 99.9482C26.9051 94.4608 27.4626 85.3387 27.0538 72.8911C27.5325 73.0389 28.0278 73.148 28.5353 73.2183C30.5858 84.7625 38.8042 94.1999 49.6498 97.9944C44.4335 100.239 34.5608 103.213 23.6902 99.9482ZM60.2642 96.1868C44.4831 96.1868 31.6443 83.348 31.6443 67.5669L31.6445 55.7974C38.4058 54.6848 43.2196 51.3563 46.2711 45.677C48.8685 48.0466 53.0682 51.2964 58.9869 54.1446C67.8861 58.4273 77.9361 60.5395 88.884 60.4225V67.5669C88.884 83.3482 76.0452 96.1868 60.2642 96.1868ZM76.7528 100.042C74.4411 99.4238 72.4465 98.6772 70.872 97.9966C81.721 94.2039 89.9423 84.765 91.9932 73.2183C92.5003 73.148 92.9949 73.0392 93.4731 72.8916C93.0641 85.3408 93.6214 94.4628 96.8379 99.95C90.471 101.873 83.7262 101.906 76.7528 100.042Z" stroke="#322153" stroke-width="0.4" mask="url(#path-13-outside-1)"/>
<mask id="path-14-outside-2" maskUnits="userSpaceOnUse" x="49.9492" y="80.2507" width="20" height="8" fill="black">
<rect fill="white" x="49.9492" y="80.2507" width="20" height="8"/>
<path d="M66.503 81.7787C63.0632 85.2185 57.4664 85.2185 54.0268 81.7787C53.3228 81.0747 52.1814 81.0747 51.4774 81.7787C50.7732 82.4827 50.7732 83.6242 51.4774 84.3282C53.9002 86.7509 57.0826 87.9622 60.265 87.9622C63.4475 87.9622 66.6299 86.7509 69.0527 84.3282C69.7569 83.6242 69.7569 82.4827 69.0527 81.7787C68.3487 81.0747 67.207 81.0747 66.503 81.7787Z"/>
</mask>
<path d="M66.503 81.7787C63.0632 85.2185 57.4664 85.2185 54.0268 81.7787C53.3228 81.0747 52.1814 81.0747 51.4774 81.7787C50.7732 82.4827 50.7732 83.6242 51.4774 84.3282C53.9002 86.7509 57.0826 87.9622 60.265 87.9622C63.4475 87.9622 66.6299 86.7509 69.0527 84.3282C69.7569 83.6242 69.7569 82.4827 69.0527 81.7787C68.3487 81.0747 67.207 81.0747 66.503 81.7787Z" fill="#322153"/>
<path d="M66.503 81.7787C63.0632 85.2185 57.4664 85.2185 54.0268 81.7787C53.3228 81.0747 52.1814 81.0747 51.4774 81.7787C50.7732 82.4827 50.7732 83.6242 51.4774 84.3282C53.9002 86.7509 57.0826 87.9622 60.265 87.9622C63.4475 87.9622 66.6299 86.7509 69.0527 84.3282C69.7569 83.6242 69.7569 82.4827 69.0527 81.7787C68.3487 81.0747 67.207 81.0747 66.503 81.7787Z" stroke="#322153" stroke-width="0.4" mask="url(#path-14-outside-2)"/>
<mask id="path-15-outside-3" maskUnits="userSpaceOnUse" x="37.1875" y="59.3032" width="12" height="7" fill="black">
<rect fill="white" x="37.1875" y="59.3032" width="12" height="7"/>
<path d="M38.7157 62.2243C38.0114 62.9283 38.0114 64.0698 38.7157 64.7738C39.4197 65.4778 40.5611 65.4778 41.2651 64.7738C42.4207 63.6186 44.3006 63.6184 45.4562 64.7738C45.8082 65.1258 46.2695 65.3018 46.731 65.3018C47.1926 65.3018 47.6539 65.1258 48.0059 64.7738C48.7101 64.0698 48.7101 62.9283 48.0059 62.2243C45.4447 59.663 41.2768 59.6627 38.7157 62.2243Z"/>
</mask>
<path d="M38.7157 62.2243C38.0114 62.9283 38.0114 64.0698 38.7157 64.7738C39.4197 65.4778 40.5611 65.4778 41.2651 64.7738C42.4207 63.6186 44.3006 63.6184 45.4562 64.7738C45.8082 65.1258 46.2695 65.3018 46.731 65.3018C47.1926 65.3018 47.6539 65.1258 48.0059 64.7738C48.7101 64.0698 48.7101 62.9283 48.0059 62.2243C45.4447 59.663 41.2768 59.6627 38.7157 62.2243Z" fill="#322153"/>
<path d="M38.7157 62.2243C38.0114 62.9283 38.0114 64.0698 38.7157 64.7738C39.4197 65.4778 40.5611 65.4778 41.2651 64.7738C42.4207 63.6186 44.3006 63.6184 45.4562 64.7738C45.8082 65.1258 46.2695 65.3018 46.731 65.3018C47.1926 65.3018 47.6539 65.1258 48.0059 64.7738C48.7101 64.0698 48.7101 62.9283 48.0059 62.2243C45.4447 59.663 41.2768 59.6627 38.7157 62.2243Z" stroke="#322153" stroke-width="0.4" mask="url(#path-15-outside-3)"/>
<mask id="path-16-outside-4" maskUnits="userSpaceOnUse" x="70.9941" y="59.3032" width="12" height="7" fill="black">
<rect fill="white" x="70.9941" y="59.3032" width="12" height="7"/>
<path d="M81.8125 64.7737C82.5167 64.0697 82.5167 62.9283 81.8125 62.2242C79.2511 59.6629 75.0835 59.6629 72.5223 62.2242C71.8181 62.9283 71.8181 64.0697 72.5223 64.7737C73.2263 65.4777 74.3677 65.4777 75.0717 64.7737C76.2274 63.6183 78.1075 63.6185 79.2629 64.7737C79.6149 65.1257 80.0762 65.3017 80.5377 65.3017C80.9992 65.3017 81.4605 65.1257 81.8125 64.7737Z"/>
</mask>
<path d="M81.8125 64.7737C82.5167 64.0697 82.5167 62.9283 81.8125 62.2242C79.2511 59.6629 75.0835 59.6629 72.5223 62.2242C71.8181 62.9283 71.8181 64.0697 72.5223 64.7737C73.2263 65.4777 74.3677 65.4777 75.0717 64.7737C76.2274 63.6183 78.1075 63.6185 79.2629 64.7737C79.6149 65.1257 80.0762 65.3017 80.5377 65.3017C80.9992 65.3017 81.4605 65.1257 81.8125 64.7737Z" fill="#322153"/>
<path d="M81.8125 64.7737C82.5167 64.0697 82.5167 62.9283 81.8125 62.2242C79.2511 59.6629 75.0835 59.6629 72.5223 62.2242C71.8181 62.9283 71.8181 64.0697 72.5223 64.7737C73.2263 65.4777 74.3677 65.4777 75.0717 64.7737C76.2274 63.6183 78.1075 63.6185 79.2629 64.7737C79.6149 65.1257 80.0762 65.3017 80.5377 65.3017C80.9992 65.3017 81.4605 65.1257 81.8125 64.7737Z" stroke="#322153" stroke-width="0.4" mask="url(#path-16-outside-4)"/>
<path d="M130.384 85.7256C139.525 85.7256 146.937 78.3143 146.937 69.1733C146.937 60.0322 130.384 44.3447 130.384 44.3447C130.384 44.3447 113.832 60.0322 113.832 69.1733C113.832 78.3143 121.243 85.7256 130.384 85.7256Z" fill="#86CCFF"/>
<path d="M130.385 87.7947C131.529 87.7947 132.454 86.8698 132.454 85.7256V79.3964C141.75 78.364 149.007 70.4664 149.007 60.8971C149.007 51.1477 133.569 36.2341 131.807 34.5664C131.01 33.8112 129.758 33.8112 128.962 34.5664C127.201 36.2341 111.764 51.1477 111.764 60.8971C111.764 70.4664 119.02 78.364 128.316 79.3964V85.7256C128.316 86.8698 129.241 87.7947 130.385 87.7947ZM115.902 60.8971C115.902 54.7727 125.322 44.0468 130.385 38.9611C135.448 44.0426 144.868 54.7665 144.868 60.8971C144.868 68.178 139.46 74.2052 132.454 75.2149V70.0298L140.124 62.3599C140.933 61.5509 140.933 60.2433 140.124 59.4343C139.315 58.6253 138.007 58.6253 137.198 59.4343L132.454 64.1786V52.6209C132.454 51.4767 131.529 50.5518 130.385 50.5518C129.241 50.5518 128.316 51.4767 128.316 52.6209V64.1786L123.572 59.4343C122.763 58.6253 121.455 58.6253 120.646 59.4343C119.837 60.2433 119.837 61.5509 120.646 62.3599L128.316 70.0298V75.2149C121.31 74.2052 115.902 68.178 115.902 60.8971Z" fill="#322153"/>
</g>
<defs>
<filter id="filter0_d" x="-798" y="-88" width="1070" height="340" filterUnits="userSpaceOnUse" color-interpolation-filters="sRGB">
<feFlood flood-opacity="0" result="BackgroundImageFix"/>
<feColorMatrix in="SourceAlpha" type="matrix" values="0 0 0 0 0 0 0 0 0 0 0 0 0 0 0 0 0 0 127 0"/>
<feOffset dy="25"/>
<feGaussianBlur stdDeviation="25"/>
<feColorMatrix type="matrix" values="0 0 0 0 0 0 0 0 0 0 0 0 0 0 0 0 0 0 0.1 0"/>
<feBlend mode="normal" in2="BackgroundImageFix" result="effect1_dropShadow"/>
<feBlend mode="normal" in="SourceGraphic" in2="effect1_dropShadow" result="shape"/>
</filter>
<clipPath id="clip0">
<rect x="-1213" y="-3835" width="1900" height="5514" fill="white"/>
</clipPath>
</defs>
</svg>
