<svg width="214" height="50" viewBox="0 0 214 50" fill="none" xmlns="http://www.w3.org/2000/svg">
<g clip-path="url(#clip0)">
<path d="M214 10.819C212.658 10.6103 212.658 10.6103 212.658 9.10629C212.658 8.64889 212.658 8.1915 212.658 7.48439C212.091 8.4106 211.918 9.24948 211.609 10.028C211.468 10.3829 211.401 10.7464 210.849 10.7451C210.282 10.7439 210.244 10.3464 210.113 10.0036C209.817 9.23391 209.544 8.45556 209.071 7.72078C209.071 8.48824 209.036 9.25778 209.083 10.0223C209.118 10.5975 208.904 10.7386 208.361 10.7436C207.828 10.7486 207.706 10.5613 207.718 10.0633C207.748 8.75473 207.709 7.44461 207.743 6.13623C207.75 5.85556 207.451 5.27504 208.077 5.3366C208.641 5.39194 209.408 4.86831 209.748 5.81095C210.076 6.71917 210.44 7.61443 210.871 8.73225C211.224 7.82194 211.559 7.13403 211.754 6.40807C211.983 5.55795 212.388 5.10764 213.317 5.30322C213.535 5.34922 213.772 5.31101 214 5.3117C214 7.14735 214 8.98317 214 10.819Z" fill="#050505"/>
<path d="M4.65556 32.1346C3.6939 32.9481 2.81339 33.8297 2.56686 35.1327C2.31206 36.479 2.85525 37.5741 3.75868 38.5138C5.22442 40.0382 7.08347 40.9017 9.03297 41.5908C12.2508 42.7281 15.5861 43.2398 18.9808 43.4034C24.0734 43.6488 29.0787 43.194 33.9137 41.4578C35.4711 40.8985 36.9539 40.18 38.2224 39.0897C40.7073 36.954 40.7118 34.5778 38.2499 32.4198C38.0146 32.2135 37.777 32.0098 37.5407 31.8047C37.5631 31.781 37.5855 31.7573 37.608 31.7338C39.2135 32.4622 40.6532 33.4202 41.7379 34.8382C43.0079 36.4983 43.04 38.3598 41.8326 40.0664C40.6965 41.6724 39.0739 42.6593 37.3439 43.4728C34.0364 45.0279 30.5116 45.7907 26.9068 46.1938C22.302 46.7088 17.7046 46.6121 13.1361 45.8039C9.62784 45.1832 6.22518 44.2347 3.20084 42.247C2.24969 41.6219 1.40415 40.8726 0.776888 39.903C-0.254541 38.3087 -0.268151 36.6988 0.791187 35.1298C1.73717 33.7289 3.04441 32.7383 4.57097 32.0345C4.59939 32.0679 4.62747 32.1013 4.65556 32.1346Z" fill="#005AAA"/>
<path d="M30.9217 32.4535C31.6338 32.7363 32.1951 33.2265 32.6717 33.8055C33.5242 34.8407 33.5335 35.9704 32.7026 37.0331C31.8017 38.1851 30.5333 38.7931 29.2067 39.2642C25.9829 40.4092 22.6486 40.6753 19.2597 40.4152C16.883 40.2329 14.5639 39.7977 12.3931 38.7563C11.5729 38.3629 10.8042 37.8872 10.2069 37.183C9.21161 36.0095 9.25709 34.7051 10.3178 33.5859C10.8972 32.9746 11.576 32.5153 12.41 32.2617C12.222 32.4546 12.034 32.6474 11.8459 32.84C10.7569 33.9554 10.7346 35.1855 11.8013 36.3209C12.4153 36.9746 13.1671 37.4543 13.9941 37.7644C19.0654 39.6668 24.134 39.6799 29.1819 37.662C29.8371 37.4002 30.4182 37.0016 30.9431 36.5312C32.1768 35.4257 32.2378 34.0607 31.1197 32.8445C31.0279 32.7447 30.936 32.645 30.8442 32.5452C30.8713 32.5156 30.8971 32.485 30.9217 32.4535Z" fill="#8BC340"/>
<path d="M204.902 5.30998C205.456 5.30998 206.01 5.3297 206.561 5.30359C206.969 5.28422 207.134 5.39939 207.127 5.84537C207.12 6.28185 206.951 6.47397 206.553 6.39079C205.569 6.18518 205.528 6.74876 205.566 7.48803C205.611 8.36755 205.54 9.2533 205.589 10.1323C205.623 10.7306 205.309 10.7248 204.876 10.7369C204.405 10.75 204.163 10.6689 204.189 10.1062C204.235 9.12862 204.172 8.14586 204.213 7.16777C204.237 6.60903 204.145 6.30623 203.492 6.38578C203.105 6.43299 202.638 6.5428 202.649 5.81874C202.659 5.03676 203.195 5.35547 203.537 5.32105C203.988 5.27557 204.447 5.30981 204.902 5.30998Z" fill="#050505"/>
<path d="M4.57227 32.0345C4.6348 31.9133 4.72387 31.9092 4.82896 31.9761C4.77142 32.0288 4.71405 32.0817 4.65668 32.1345C4.6286 32.1013 4.60052 32.0679 4.57227 32.0345Z" fill="#005AAA"/>
<path d="M30.844 32.5452C30.7963 32.4914 30.6503 32.476 30.7194 32.3819C30.7723 32.31 30.8776 32.356 30.9215 32.4535C30.897 32.485 30.8712 32.5156 30.844 32.5452Z" fill="#8BC340"/>
<path d="M37.5405 31.8049C37.4662 31.7786 37.2982 31.8388 37.3523 31.693C37.3875 31.5984 37.53 31.6497 37.6075 31.7343C37.5851 31.7575 37.5627 31.7812 37.5405 31.8049Z" fill="#005AAA"/>
<path d="M113.916 15.9619C113.929 18.5676 113.835 21.1769 114.185 23.7711C114.286 24.5134 114.439 25.2429 114.74 25.9315C115.244 27.0821 116.164 27.6212 117.511 27.5696C118.674 27.525 119.482 26.9405 119.877 25.7682C120.442 24.0894 120.446 22.3382 120.458 20.5921C120.464 19.6913 120.462 19.6911 121.375 19.6911C123.138 19.691 124.902 19.6892 126.665 19.6934C126.917 19.6939 127.219 19.5979 127.222 20.0546C127.24 22.1654 127.23 24.2663 126.541 26.3038C125.627 29.0086 123.797 30.7456 121.067 31.4626C118.399 32.1633 115.699 32.0988 113.031 31.4368C109.989 30.682 108.36 28.537 107.561 25.6295C106.812 22.8986 106.669 20.0953 106.622 17.2867C106.564 13.8637 106.624 10.4422 107.432 7.09026C107.999 4.74101 108.996 2.64545 111.165 1.33257C112.366 0.605058 113.698 0.252108 115.074 0.122065C117.122 -0.0712702 119.166 -0.0861422 121.184 0.459797C124.368 1.3215 126.321 3.50872 126.801 6.78435C126.969 7.93053 127.002 9.08103 127.017 10.236C127.022 10.6535 126.938 10.8351 126.464 10.8283C124.566 10.8013 122.666 10.8057 120.768 10.8261C120.35 10.8306 120.223 10.704 120.231 10.2876C120.253 9.15522 120.249 8.02408 120.045 6.89969C119.695 4.97378 118.544 4.11276 116.63 4.42058C115.822 4.55062 115.228 5.01303 114.852 5.74868C114.293 6.84159 114.17 8.03861 114.06 9.23061C113.853 11.4701 113.924 13.7173 113.916 15.9619Z" fill="#8BC340"/>
<path d="M139.366 46.2365C139.607 44.1022 139.855 42.0129 140.071 39.9203C140.11 39.5371 140.244 39.4286 140.61 39.4393C141.423 39.4629 142.237 39.4653 143.05 39.4392C143.479 39.4253 143.544 39.6062 143.47 39.972C142.843 43.0686 142.216 46.1653 141.608 49.2659C141.543 49.5983 141.427 49.7345 141.088 49.7309C139.959 49.7188 138.829 49.7121 137.7 49.7345C137.327 49.742 137.269 49.5765 137.231 49.2566C137.025 47.528 136.793 45.8025 136.57 44.0759C136.539 43.8357 136.543 43.5843 136.353 43.3802C136.101 45.2773 135.844 47.1589 135.606 49.043C135.543 49.5412 135.374 49.775 134.806 49.7425C133.815 49.6854 132.819 49.7088 131.825 49.7356C131.443 49.746 131.249 49.6398 131.171 49.2491C130.546 46.1497 129.909 43.0527 129.275 39.9552C129.212 39.6443 129.231 39.4319 129.647 39.4407C130.573 39.4604 131.5 39.4585 132.425 39.4412C132.782 39.4345 132.888 39.5901 132.919 39.9203C133.102 41.9013 133.301 43.881 133.512 46.0428C133.9 45.2168 133.871 44.4697 133.986 43.7633C134.198 42.4696 134.378 41.1697 134.526 39.8673C134.571 39.4779 134.754 39.4419 135.056 39.4442C135.982 39.4513 136.909 39.4705 137.834 39.4357C138.25 39.4202 138.395 39.5874 138.443 39.9609C138.676 41.7774 138.922 43.5923 139.154 45.4089C139.188 45.6774 139.194 45.947 139.366 46.2365Z" fill="#8BC340"/>
<path d="M128.306 44.5565C128.333 45.7259 128.264 46.8072 127.867 47.8403C127.491 48.8189 126.766 49.4383 125.784 49.7257C124.663 50.0538 123.517 50.066 122.371 49.8445C120.731 49.5272 119.813 48.486 119.54 46.8758C119.265 45.2579 119.254 43.6339 119.609 42.0177C119.943 40.4963 120.897 39.6204 122.39 39.3276C123.532 39.1035 124.68 39.1217 125.802 39.4592C127.25 39.895 127.919 40.9838 128.167 42.3987C128.297 43.1371 128.342 43.883 128.306 44.5565ZM124.648 44.6421C124.616 43.8529 124.709 43.0572 124.509 42.2764C124.414 41.9048 124.296 41.5724 123.822 41.5911C123.355 41.6096 123.219 41.9565 123.165 42.3224C122.942 43.8309 122.943 45.3444 123.168 46.852C123.222 47.2132 123.369 47.5705 123.834 47.5788C124.304 47.5871 124.413 47.2366 124.511 46.8724C124.708 46.1374 124.615 45.3866 124.648 44.6421Z" fill="#8BC340"/>
<path d="M166.054 45.1625C165.377 45.1626 164.699 45.164 164.022 45.1619C163.787 45.1612 163.562 45.149 163.571 45.495C163.584 46.0159 163.546 46.5402 163.59 47.0576C163.629 47.5057 163.88 47.8359 164.378 47.813C164.843 47.7915 165.016 47.4676 165.074 47.0387C165.201 46.0845 165.207 46.0854 166.187 46.0854C166.797 46.0854 167.407 46.1051 168.016 46.0783C168.381 46.0622 168.465 46.1964 168.463 46.5447C168.453 48.2192 167.497 49.4195 165.789 49.8248C164.787 50.0624 163.782 50.0347 162.777 49.8112C161.357 49.4952 160.463 48.6425 160.149 47.216C159.77 45.4917 159.778 43.7555 160.129 42.0304C160.431 40.548 161.354 39.6571 162.835 39.3487C163.841 39.1391 164.852 39.1189 165.852 39.3373C167.379 39.6709 168.192 40.5572 168.431 42.1805C168.553 43.0064 168.606 43.8446 168.602 44.6857C168.6 45.0909 168.452 45.1817 168.086 45.1689C167.409 45.1455 166.731 45.1623 166.054 45.1625ZM164.455 43.1921C164.623 43.0937 165.182 43.5323 165.171 42.8013C165.156 41.7895 164.912 41.3499 164.333 41.3518C163.8 41.3533 163.628 41.7151 163.555 42.5509C163.495 43.2431 163.83 43.2981 164.455 43.1921Z" fill="#8BC340"/>
<path d="M150.598 45.1625C149.921 45.1626 149.243 45.1784 148.566 45.1562C148.212 45.1446 148.082 45.2655 148.102 45.6223C148.126 46.0515 148.096 46.4835 148.112 46.9135C148.128 47.3901 148.316 47.7792 148.842 47.8095C149.387 47.841 149.625 47.4617 149.6 46.9787C149.562 46.2353 149.855 45.9889 150.585 46.0715C151.187 46.1397 151.807 46.1303 152.411 46.0726C152.99 46.0173 153.031 46.2988 152.989 46.7455C152.825 48.4841 151.847 49.576 150.135 49.8786C149.125 50.0571 148.117 50.0266 147.121 49.7648C145.852 49.4314 145.033 48.6294 144.719 47.354C144.291 45.6126 144.317 43.8499 144.645 42.1006C144.933 40.5606 145.892 39.6323 147.429 39.3316C148.412 39.1393 149.405 39.1225 150.383 39.3353C151.914 39.6683 152.725 40.5496 152.967 42.1723C153.089 42.9982 153.144 43.8359 153.137 44.677C153.134 45.0694 153.006 45.1832 152.63 45.1692C151.953 45.1441 151.275 45.1623 150.598 45.1625ZM148.791 43.2262C149.701 43.2263 149.701 43.2263 149.704 42.7918C149.712 41.8021 149.443 41.3435 148.859 41.3514C148.329 41.3587 148.163 41.7191 148.091 42.5592C148.03 43.2633 148.382 43.2945 148.791 43.2262Z" fill="#8BC340"/>
<path d="M189.233 45.1625C188.555 45.163 187.877 45.1623 187.199 45.1633C186.991 45.1637 186.77 45.1569 186.778 45.4613C186.792 46.0043 186.782 46.5504 186.84 47.0889C186.884 47.5044 187.118 47.8185 187.589 47.8155C188.026 47.8128 188.226 47.53 188.296 47.1307C188.353 46.8022 188.292 46.3206 188.484 46.1775C188.814 45.9322 189.309 46.1032 189.733 46.0892C190.207 46.0736 190.684 46.1087 191.156 46.0786C191.565 46.0525 191.7 46.176 191.684 46.6085C191.62 48.3051 190.78 49.3951 189.1 49.8103C187.918 50.1027 186.728 50.0539 185.564 49.6859C184.173 49.2462 183.519 48.1785 183.294 46.8215C183.032 45.2479 183.029 43.669 183.355 42.0949C183.677 40.543 184.621 39.6289 186.146 39.329C187.217 39.1182 188.297 39.1244 189.363 39.4075C190.483 39.7051 191.195 40.4197 191.518 41.5346C191.827 42.5962 191.791 43.6844 191.799 44.7721C191.802 45.1367 191.617 45.1692 191.335 45.1654C190.634 45.1554 189.934 45.1619 189.233 45.1625ZM187.52 43.2249C188.389 43.2277 188.389 43.2277 188.392 42.6598C188.396 41.7592 188.144 41.3523 187.582 41.353C187.035 41.3537 186.824 41.773 186.759 42.6667C186.708 43.3581 187.135 43.2224 187.52 43.2249Z" fill="#8BC340"/>
<path d="M194.563 46.3915C194.812 46.3908 195.063 46.4147 195.308 46.386C195.846 46.323 196.199 46.4069 196.217 47.0841C196.229 47.5378 196.573 47.8081 197.043 47.8166C197.463 47.824 197.703 47.5819 197.808 47.1844C197.945 46.6706 197.637 46.415 197.24 46.25C196.513 45.9481 195.767 45.6916 195.04 45.3909C193.349 44.6919 192.755 43.6621 193.023 41.9365C193.259 40.4183 194.363 39.4629 195.997 39.2607C196.999 39.1369 197.977 39.1919 198.946 39.4259C200.273 39.7467 201.065 40.7497 201.048 41.983C201.044 42.305 200.951 42.4217 200.623 42.4129C199.901 42.3935 199.178 42.3859 198.456 42.4162C198.109 42.4307 197.963 42.2962 197.918 41.9801C197.843 41.4561 197.468 41.3402 197.028 41.3587C196.688 41.3731 196.423 41.5206 196.33 41.8879C196.24 42.2464 196.452 42.4489 196.711 42.6038C196.942 42.7416 197.192 42.8511 197.444 42.9476C197.948 43.1409 198.458 43.3177 198.967 43.4996C200.744 44.1349 201.443 45.1658 201.279 46.9098C201.129 48.5101 200.111 49.585 198.412 49.8733C197.339 50.0553 196.256 50.055 195.193 49.7833C193.707 49.4036 192.865 48.2609 192.91 46.7529C192.918 46.4885 193.025 46.3873 193.277 46.3908C193.706 46.3965 194.134 46.3922 194.563 46.3915Z" fill="#8BC340"/>
<path d="M170.523 45.2095C170.523 44.161 170.504 43.2981 170.532 42.4367C170.546 42.0108 170.444 41.7803 169.979 41.8628C169.482 41.951 169.346 41.7156 169.4 41.2572C169.431 40.9886 169.415 40.7128 169.403 40.4411C169.378 39.8623 169.305 39.2739 170.214 39.4345C170.566 39.4968 170.52 39.1879 170.521 38.9688C170.526 38.2882 170.536 37.607 170.519 36.9267C170.51 36.5793 170.629 36.4392 170.987 36.4458C171.913 36.4627 172.841 36.4615 173.767 36.4463C174.105 36.4408 174.193 36.5914 174.186 36.8976C174.174 37.5328 174.214 38.1704 174.173 38.803C174.14 39.3071 174.294 39.5367 174.811 39.4461C175.374 39.3472 175.595 39.5796 175.512 40.1447C175.482 40.3446 175.507 40.5525 175.507 40.7567C175.507 41.7601 175.509 41.7765 174.55 41.8535C174.239 41.8785 174.179 42.0075 174.18 42.277C174.187 43.6837 174.181 45.0907 174.185 46.4976C174.187 47.0593 174.407 47.4356 175.039 47.337C175.459 47.2715 175.532 47.4567 175.513 47.8197C175.489 48.2949 175.487 48.7736 175.514 49.2486C175.533 49.6062 175.445 49.757 175.05 49.7928C174.035 49.885 173.026 49.9493 172.014 49.7703C171.166 49.6204 170.76 49.2111 170.614 48.3506C170.427 47.2454 170.578 46.1317 170.523 45.2095Z" fill="#8BC340"/>
<path d="M113.488 45.2209C113.488 44.2916 113.469 43.3617 113.496 42.4331C113.508 42.0044 113.402 41.7793 112.937 41.8623C112.457 41.9479 112.365 41.6909 112.397 41.2797C112.423 40.9418 112.425 40.5982 112.397 40.2604C112.352 39.7128 112.424 39.3159 113.129 39.4394C113.443 39.4943 113.492 39.2709 113.49 39.0115C113.482 38.3542 113.507 37.6961 113.481 37.0398C113.464 36.6227 113.554 36.4202 114.032 36.4408C114.889 36.4776 115.749 36.4681 116.606 36.4439C117.014 36.4325 117.174 36.5608 117.154 36.9843C117.126 37.5949 117.182 38.2105 117.137 38.8192C117.098 39.3401 117.285 39.532 117.783 39.4461C118.297 39.3574 118.481 39.5755 118.413 40.0825C118.38 40.3273 118.407 40.5803 118.407 40.8297C118.407 41.7689 118.408 41.7864 117.514 41.8536C117.204 41.877 117.143 42.0044 117.145 42.273C117.154 43.7009 117.155 45.1287 117.155 46.5566C117.155 47.0699 117.348 47.413 117.913 47.3355C118.375 47.2722 118.456 47.4903 118.409 47.8692C118.398 47.9584 118.407 48.0502 118.407 48.141C118.408 49.8131 118.408 49.8181 116.759 49.8883C116.173 49.9132 115.588 49.876 115.007 49.7774C114.04 49.6135 113.567 49.1374 113.526 48.1436C113.486 47.1709 113.518 46.1952 113.518 45.2209C113.508 45.2209 113.498 45.2209 113.488 45.2209Z" fill="#8BC340"/>
<path d="M177.267 45.1787C177.267 44.2484 177.246 43.3171 177.276 42.3878C177.29 41.9674 177.164 41.7919 176.746 41.8624C176.268 41.9432 176.096 41.7416 176.149 41.2655C176.185 40.9518 176.179 40.6288 176.151 40.3135C176.102 39.7513 176.143 39.3064 176.899 39.4411C177.206 39.4957 177.275 39.3022 177.27 39.0297C177.259 38.3264 177.281 37.6224 177.261 36.9194C177.251 36.5724 177.357 36.4363 177.72 36.4446C178.624 36.4651 179.529 36.4658 180.433 36.444C180.806 36.4351 180.959 36.5369 180.941 36.9371C180.912 37.5939 180.956 38.2539 180.925 38.9105C180.906 39.318 181.019 39.526 181.447 39.4444C182.083 39.3232 182.242 39.631 182.165 40.1983C182.135 40.4211 182.142 40.6533 182.164 40.8781C182.228 41.5346 182.176 42.0639 181.284 41.8671C181.03 41.8109 180.929 41.9494 180.93 42.213C180.938 43.7107 180.935 45.2085 180.934 46.7062C180.933 47.224 181.245 47.387 181.688 47.3364C182.09 47.2904 182.19 47.4486 182.167 47.8233C182.139 48.2982 182.14 48.7772 182.167 49.2522C182.188 49.613 182.091 49.7653 181.701 49.7968C180.754 49.8731 179.813 49.9438 178.866 49.7909C177.756 49.6119 177.299 49.1082 177.268 47.9701C177.267 47.9475 177.267 47.9248 177.267 47.902C177.267 46.9941 177.267 46.0864 177.267 45.1787Z" fill="#8BC340"/>
<path d="M158.287 42.9602C158.287 45.0252 158.275 47.0903 158.296 49.1551C158.301 49.5946 158.189 49.7534 157.733 49.7363C156.853 49.7031 155.97 49.7141 155.089 49.7326C154.745 49.7399 154.613 49.6441 154.614 49.2763C154.624 45.0556 154.625 40.8349 154.613 36.6142C154.612 36.2258 154.78 36.1686 155.104 36.1741C155.94 36.1886 156.778 36.2082 157.612 36.168C158.13 36.1431 158.311 36.2746 158.301 36.8336C158.265 38.8753 158.287 40.9179 158.287 42.9602Z" fill="#8BC340"/>
<path d="M45.2924 31.7986C42.7059 31.5238 41.2119 29.8314 41.0727 27.0185C41.0765 26.8145 41.0836 26.6104 41.0836 26.4063C41.0838 20.6884 41.0914 14.9703 41.0703 9.25242C41.0683 8.67207 41.1906 8.46663 41.812 8.47994C43.7777 8.52197 45.7449 8.49516 47.7115 8.49499C47.7172 13.5869 47.7244 18.6786 47.7263 23.7705C47.7265 24.3402 47.8081 24.8932 47.938 25.4468C48.197 26.5494 49.1931 27.2625 50.2534 27.2772C51.4689 27.294 52.4181 26.6438 52.7449 25.4983C52.8068 25.2813 52.8505 25.0589 52.9026 24.8391C53.1029 24.6022 53.0154 24.3177 53.0156 24.0554C53.0211 19.0944 53.0275 14.1334 53.0085 9.17235C53.0064 8.63766 53.152 8.4751 53.6907 8.4834C55.6762 8.51366 57.6624 8.49516 59.6485 8.49499C59.6541 15.8054 59.66 23.1158 59.6641 30.4261C59.6643 30.6971 59.6466 30.9679 59.6371 31.2389C57.752 31.239 55.8664 31.2169 53.9821 31.253C53.4063 31.2641 53.2681 31.0747 53.2743 30.526C53.2817 29.8634 53.4225 29.1843 53.1741 28.5318C52.3968 28.2053 52.1234 28.3117 51.7654 29.0018C50.9384 30.5961 49.6493 31.5539 47.8579 31.7966C47.0029 31.7974 46.1475 31.7981 45.2924 31.7986Z" fill="#005AAA"/>
<path d="M80.1582 25.7808C79.8057 28.1406 78.4276 29.7408 76.3887 30.8143C75.2879 31.394 74.0957 31.716 72.8481 31.8017C71.6676 31.8002 70.4873 31.7985 69.3071 31.7969C68.1645 31.7621 67.0687 31.4913 66.0377 31.0203C63.6992 29.9514 62.6618 28.0217 62.5054 25.5201C62.4804 25.119 62.6485 25.063 62.9676 25.0641C64.5499 25.0692 66.1325 25.0796 67.7145 25.0568C68.1333 25.0507 68.2739 25.241 68.3223 25.6031C68.4975 26.9144 69.1806 27.7631 70.4548 28.2247C71.925 28.7573 73.9329 27.5063 74.0521 25.9114C74.1401 24.7312 73.6924 23.8492 72.7016 23.2175C71.5219 22.4653 70.1774 22.1377 68.8771 21.6987C67.5062 21.2359 66.1415 20.7666 64.9477 19.9132C63.0368 18.547 62.3661 16.6133 62.4526 14.3521C62.5939 10.6571 65.1645 8.65373 68.5766 7.98415C69.0859 7.88419 69.5982 7.79687 70.1211 7.81399C70.9849 7.81243 71.8489 7.8107 72.7127 7.80914C74.7276 7.93365 76.6354 8.35422 78.1186 9.87046C79.0482 10.8209 79.5962 11.9496 79.6126 13.3095C79.6151 13.5267 79.6858 13.7429 79.7251 13.9596C78.0922 13.9594 76.4594 13.9583 74.8265 13.9601C74.5369 13.9604 74.2363 14.003 74.0643 13.6827C73.5244 11.6527 72.0785 10.8786 70.1784 11.6027C68.5568 12.2206 68.1075 14.3481 69.3443 15.5752C69.9038 16.1303 70.6067 16.4338 71.3355 16.6934C72.8641 17.2376 74.4604 17.5715 75.9629 18.1949C77.7823 18.95 79.2699 20.0595 79.9242 22.0253C80.0376 22.3658 80.0832 22.7288 80.1602 23.0814C80.1592 23.9812 80.1587 24.8809 80.1582 25.7808Z" fill="#005AAA"/>
<path d="M47.7099 8.49515C45.7434 8.49533 43.7761 8.52196 41.8104 8.48011C41.189 8.46679 41.0667 8.67223 41.0688 9.25258C41.0898 14.9705 41.0822 20.6886 41.082 26.4065C41.082 26.6106 41.075 26.8146 41.0712 27.0187C40.8558 26.7622 40.954 26.4537 40.9537 26.1727C40.9454 20.4627 40.9537 14.7528 40.9366 9.04299C40.9351 8.52317 41.0517 8.34107 41.6047 8.35179C43.455 8.38776 45.3065 8.362 47.1574 8.37064C47.3426 8.37116 47.5688 8.2674 47.7099 8.49515Z" fill="#4B5776"/>
<path d="M59.647 8.49515C57.661 8.49533 55.6748 8.51383 53.6893 8.48357C53.1505 8.47544 53.005 8.63782 53.007 9.17252C53.026 14.1335 53.0198 19.0945 53.0141 24.0555C53.0138 24.3179 53.1013 24.6023 52.9011 24.8392C52.8956 19.5085 52.8906 14.178 52.8828 8.84724C52.8825 8.57626 52.8916 8.3594 53.263 8.36165C55.3419 8.37445 57.4208 8.37237 59.4997 8.38154C59.549 8.38171 59.5979 8.45555 59.647 8.49515Z" fill="#4B5776"/>
<path d="M53.1747 28.532C53.4232 29.1845 53.2824 29.8636 53.275 30.5262C53.2688 31.0749 53.407 31.2643 53.9827 31.2532C55.8671 31.2171 57.7527 31.2392 59.6377 31.2391C59.5192 31.446 59.318 31.363 59.1528 31.3637C57.3545 31.37 55.5561 31.353 53.7582 31.3774C53.2859 31.3838 53.1243 31.2399 53.1489 30.7644C53.1873 30.0218 53.1689 29.2763 53.1747 28.532Z" fill="#4B5776"/>
<path d="M74.0634 13.6829C74.2354 14.0032 74.536 13.9606 74.8256 13.9603C76.4584 13.9585 78.0913 13.9596 79.7241 13.9598C79.6848 14.0549 79.607 14.0856 79.5124 14.0858C77.8122 14.087 76.112 14.0843 74.4119 14.0926C74.1086 14.0939 74.0078 13.9668 74.0634 13.6829Z" fill="#4B5776"/>
<path d="M69.3066 31.7969C70.4869 31.7985 71.6672 31.8 72.8476 31.8017C71.6672 32.0004 70.4867 32.0094 69.3066 31.7969Z" fill="#4B5776"/>
<path d="M80.1582 25.7808C80.1587 24.8811 80.1592 23.9812 80.1597 23.0814C80.3697 23.9813 80.3718 24.8811 80.1582 25.7808Z" fill="#4B5776"/>
<path d="M45.293 31.7986C46.1483 31.7979 47.0035 31.7974 47.8587 31.7969C47.0035 32.0101 46.1483 32.0067 45.293 31.7986Z" fill="#4B5776"/>
<path d="M72.7107 7.80933C71.8467 7.81105 70.9829 7.81261 70.1191 7.81417C70.9826 7.61028 71.8466 7.61997 72.7107 7.80933Z" fill="#4B5776"/>
<path d="M178.891 21.5963C178.891 24.0578 178.894 26.3261 178.889 28.5944C178.888 29.3695 179.014 30.1292 179.181 30.8785C179.261 31.2347 179.168 31.311 178.839 31.3094C177.031 31.3009 175.223 31.2975 173.415 31.3123C173.074 31.3151 172.921 31.1878 172.88 30.8645C172.813 30.349 172.755 29.831 172.656 29.3214C172.601 29.0406 172.677 28.6375 172.227 28.5934C171.827 28.5541 171.497 28.5332 171.257 29.0463C170.245 31.2093 167.85 32.2629 165.283 31.8726C162 31.3734 160.572 29.2253 160.461 26.1488C160.422 25.0646 160.41 23.9782 160.66 22.9031C161.208 20.5421 162.894 19.3982 165.029 18.727C166.639 18.2212 168.295 17.8966 169.93 17.4913C172.071 16.9604 172.909 15.6273 172.561 13.4816C172.294 11.8396 170.922 11.2112 169.526 11.4011C167.97 11.6126 167.343 12.3155 167.117 14.0977C167.057 14.5738 166.886 14.6345 166.49 14.6298C165.044 14.6131 163.597 14.6236 162.151 14.6231C161.344 14.6227 161.311 14.5821 161.431 13.7858C161.882 10.7946 163.594 8.89531 166.483 8.15984C169.242 7.45723 172.032 7.5392 174.764 8.35508C177.222 9.08917 178.551 10.8728 178.766 13.4268C179.001 16.2135 178.79 19.0027 178.891 21.5963ZM172.661 21.8756C172.661 21.3767 172.661 20.8776 172.66 20.3787C172.66 19.6917 172.079 19.3071 171.563 19.738C171.001 20.2078 170.343 20.2865 169.708 20.4833C168.319 20.9141 167.279 21.7065 167.008 23.2153C166.901 23.8089 166.925 24.4342 166.951 25.0423C167.034 26.9601 168.354 28.04 170.218 27.705C171.461 27.4818 172.085 26.599 172.387 25.4526C172.695 24.2805 172.681 23.0767 172.661 21.8756Z" fill="#8BC340"/>
<path d="M152.856 20.5492C151.07 20.5492 149.284 20.5696 147.499 20.5366C146.977 20.5269 146.844 20.6896 146.87 21.1905C146.95 22.7048 146.768 24.2261 147.009 25.7387C147.321 27.6969 148.924 28.7409 150.693 28.1232C151.597 27.8076 152.046 27.0963 152.299 26.2431C152.473 25.6602 152.596 25.0559 152.589 24.4405C152.585 24.1489 152.691 24.0422 152.984 24.0438C154.702 24.0524 156.42 24.0549 158.138 24.0422C158.482 24.0396 158.541 24.182 158.54 24.4915C158.522 28.4495 155.776 31.421 151.851 31.7943C150.086 31.9621 148.344 31.9527 146.595 31.6548C143.525 31.1317 141.556 29.3356 140.843 26.347C139.803 21.9944 139.737 17.5907 140.944 13.2557C141.995 9.47965 144.589 8.21744 147.774 7.83579C149.466 7.63294 151.158 7.67185 152.825 8.012C155.875 8.63437 157.539 10.6654 158.257 13.5867C158.78 15.7146 158.821 17.8885 158.813 20.0666C158.811 20.5478 158.561 20.5539 158.214 20.5527C156.428 20.5454 154.642 20.5491 152.856 20.5492ZM149.737 17.4278C150.526 17.4278 151.316 17.4183 152.105 17.4325C152.426 17.4382 152.603 17.381 152.593 16.9928C152.567 15.9763 152.614 14.9591 152.457 13.9468C152.206 12.3211 151.325 11.4448 149.824 11.3635C148.374 11.285 147.394 12.0885 147.053 13.6876C146.816 14.8009 146.884 15.9377 146.875 17.0676C146.872 17.3943 147.045 17.432 147.301 17.4301C148.113 17.4237 148.925 17.4275 149.737 17.4278Z" fill="#8BC340"/>
<path d="M94.9518 14.9171C94.5329 12.8718 93.3018 12.0331 91.5078 12.5645C90.555 12.8468 90.0943 13.5459 89.9098 14.468C89.835 14.8418 89.81 15.2256 89.7625 15.6046C89.5609 15.8424 89.6577 16.1271 89.6572 16.3884C89.6507 21.1016 89.6434 25.8148 89.6645 30.5278C89.667 31.0884 89.519 31.2622 88.9498 31.253C87.0091 31.2216 85.0674 31.2454 83.126 31.2482L83.1277 31.2501C83.1291 30.9328 83.1317 30.6156 83.1318 30.2983C83.132 20.7116 83.1389 11.1249 83.1172 1.53837C83.1156 0.874842 83.3027 0.700875 83.9483 0.719206C85.5725 0.765378 87.2007 0.776618 88.8239 0.715228C89.5478 0.687905 89.6757 0.938134 89.667 1.59751C89.6317 4.29401 89.65 6.99119 89.6562 9.6882C89.6567 9.9284 89.573 10.1899 89.762 10.4055C89.8188 10.6789 89.7589 11.0357 90.2004 11.0386C90.5746 11.041 90.9028 11.0905 91.1533 10.6293C92.7563 7.67651 97.0281 6.75185 99.7317 8.74919C100.896 9.60934 101.508 10.8121 101.578 12.2311C101.877 18.3158 101.645 24.4059 101.713 30.4934C101.715 30.7419 101.695 30.9905 101.686 31.239C99.4783 31.242 97.2705 31.2451 95.0626 31.2482L95.0643 31.2501C95.0657 26.0214 95.068 20.7925 95.065 15.5638C95.0652 15.3459 95.132 15.1069 94.9518 14.9171Z" fill="#005AAA"/>
<path d="M89.7626 10.4055C89.5736 10.1899 89.6575 9.9284 89.6568 9.6882C89.6506 6.99119 89.6323 4.29401 89.6676 1.59751C89.6762 0.938134 89.5482 0.687905 88.8245 0.715228C87.2011 0.776618 85.5731 0.765377 83.9489 0.719205C83.3033 0.700875 83.1162 0.874842 83.1178 1.53837C83.1393 11.1249 83.1326 20.7116 83.1324 30.2983C83.1324 30.6156 83.1298 30.9328 83.1283 31.2501C82.9012 31.0784 83.0034 30.8311 83.0034 30.6203C82.9977 20.8449 83.0017 11.0694 82.9896 1.29402C82.9889 0.794429 83.0707 0.577057 83.645 0.589162C85.4969 0.62859 87.3503 0.608357 89.2032 0.599884C89.5529 0.598327 89.7963 0.602823 89.7925 1.08478C89.767 4.19163 89.7693 7.29866 89.7626 10.4055Z" fill="#4B5776"/>
<path d="M83.127 31.2482C85.0684 31.2454 87.0099 31.2216 88.9508 31.253C89.5202 31.2622 89.668 31.0884 89.6654 30.5278C89.6444 25.8148 89.6517 21.1014 89.6582 16.3884C89.6586 16.1271 89.5617 15.8424 89.7635 15.6046C89.77 20.7035 89.7755 25.8021 89.786 30.9006C89.7866 31.1891 89.7387 31.3731 89.3855 31.3711C87.3762 31.3604 85.3669 31.3654 83.3576 31.3582C83.2806 31.3578 83.2038 31.2864 83.127 31.2482Z" fill="#4B5776"/>
<path d="M94.9526 14.9171C95.1328 15.107 95.066 15.3461 95.0661 15.5638C95.0691 20.7925 95.0668 26.0214 95.0655 31.2501C94.8894 31.1491 94.9376 30.9748 94.9378 30.8249C94.9409 25.5222 94.9469 20.2196 94.9526 14.9171Z" fill="#4B5776"/>
<path d="M95.0645 31.2482C97.2722 31.2451 99.4801 31.2422 101.688 31.239C101.614 31.3974 101.467 31.3658 101.339 31.3658C99.3685 31.3677 97.3978 31.3675 95.4269 31.3661C95.2955 31.3661 95.1546 31.3826 95.0645 31.2482Z" fill="#4B5776"/>
<path d="M182.835 19.8167C182.835 16.2313 182.849 12.6458 182.82 9.06065C182.816 8.47771 182.987 8.35078 183.538 8.36288C185.21 8.40006 186.884 8.39868 188.556 8.36357C189.104 8.35216 189.334 8.48013 189.283 9.06653C189.237 9.58359 189.25 10.1124 189.304 10.629C189.329 10.8645 189.15 11.2892 189.648 11.2954C190.037 11.3003 190.414 11.3959 190.642 10.8565C191.238 9.45113 192.286 8.49085 193.757 8.0414C195.363 7.55132 196.979 7.59663 198.543 8.15761C200.456 8.8438 201.235 10.4109 201.4 12.3183C201.593 14.5354 201.465 16.7617 201.475 18.9837C201.493 22.8412 201.467 26.6991 201.494 30.5567C201.498 31.1517 201.348 31.3345 200.742 31.3203C198.979 31.2792 197.215 31.2793 195.452 31.3205C194.861 31.3343 194.758 31.1311 194.76 30.5885C194.78 25.7551 194.777 20.9215 194.765 16.0882C194.763 15.5251 194.72 14.9499 194.599 14.4019C194.302 13.0579 193.295 12.3517 191.915 12.4502C190.615 12.5431 189.756 13.4041 189.615 14.7822C189.566 15.255 189.547 15.7328 189.546 16.2082C189.541 20.9736 189.529 25.739 189.559 30.5043C189.564 31.1794 189.361 31.3366 188.721 31.3205C186.982 31.2769 185.24 31.2852 183.5 31.3177C182.969 31.3276 182.819 31.1782 182.823 30.6405C182.846 27.0329 182.835 23.4247 182.835 19.8167Z" fill="#8BC340"/>
<path d="M31.1773 0.732208C34.7009 0.977422 37.3733 3.43856 38.0779 7.09844C38.1587 7.51797 38.1908 7.947 38.2454 8.37155C38.2442 9.36364 38.2431 10.3557 38.2419 11.3478C37.9842 15.6614 34.8308 18.7214 30.3588 18.9979C28.7322 18.9977 27.1055 19.0079 25.4789 18.9903C25.068 18.9858 24.9293 19.1205 24.931 19.5371C24.9474 23.574 24.9474 27.611 24.9521 31.6479C25.073 34.0687 22.7512 35.9502 20.3149 35.1756C19.0376 34.7696 18.0322 33.3751 18.0253 32.0281C18.0074 28.5135 17.972 24.9989 17.977 21.4843C17.9867 14.5676 18.0191 7.65078 18.0418 0.734283C22.4204 0.733592 26.7989 0.7329 31.1773 0.732208ZM27.7909 5.35513C26.9545 5.10439 26.0989 5.28873 25.2532 5.2455C24.9702 5.23097 24.9388 5.43849 24.9388 5.65897C24.9393 8.46233 24.9393 11.2657 24.9388 14.0692C24.9388 14.2878 24.9655 14.5012 25.2492 14.4856C26.1392 14.4371 27.0396 14.6375 27.9206 14.3762C29.5324 14.1225 30.4922 13.1581 30.8829 11.6005C31.0602 10.8937 31.0809 10.1657 31.0454 9.43991C30.9411 7.30768 30.0954 5.69736 27.7909 5.35513Z" fill="#005AAA"/>
<path d="M24.9527 31.6478C24.948 27.611 24.948 23.5739 24.9317 19.5371C24.9299 19.1205 25.0686 18.9858 25.4795 18.9903C27.106 19.0079 28.7328 18.9977 30.3594 18.9979C29.9644 19.2469 29.5263 19.1115 29.1106 19.1199C27.9832 19.1428 26.8539 19.1575 25.7276 19.1149C25.1842 19.0944 25.051 19.2694 25.0541 19.798C25.0759 23.5113 25.0678 27.2248 25.0607 30.9381C25.0605 31.1749 25.1589 31.4384 24.9527 31.6478Z" fill="#4B5776"/>
<path d="M31.1783 0.732202C26.7999 0.732894 22.4214 0.733758 18.043 0.734277C18.1834 0.506701 18.4091 0.609249 18.5936 0.609076C22.5763 0.603715 26.559 0.605098 30.5417 0.611324C30.7564 0.61167 30.9959 0.53731 31.1783 0.732202Z" fill="#4B5776"/>
<path d="M38.2422 11.3478C38.2432 10.3557 38.2444 9.36345 38.2456 8.37152C38.4482 9.36396 38.4517 10.3561 38.2422 11.3478Z" fill="#4B5776"/>
<path d="M137.119 15.9191C137.119 20.7955 137.105 25.6721 137.135 30.5486C137.139 31.1972 136.938 31.3298 136.342 31.3177C134.558 31.2814 132.772 31.2854 130.988 31.3165C130.466 31.3257 130.349 31.1533 130.35 30.6559C130.363 20.8576 130.363 11.0592 130.35 1.26085C130.349 0.766963 130.46 0.594206 130.984 0.603371C132.836 0.635709 134.689 0.63398 136.542 0.60389C137.037 0.595935 137.13 0.764542 137.128 1.22142C137.113 6.12052 137.119 11.0198 137.119 15.9191Z" fill="#8BC340"/>
<path d="M27.7912 5.35512C27.0264 5.36117 26.2617 5.3776 25.4971 5.36826C25.1813 5.36446 25.0614 5.47392 25.0625 5.79782C25.0706 8.50814 25.0728 11.2185 25.0607 13.9288C25.059 14.317 25.2456 14.3661 25.5597 14.3632C26.3468 14.3558 27.1341 14.3703 27.9212 14.3762C27.0402 14.6375 26.1399 14.437 25.2499 14.4856C24.9662 14.5012 24.9395 14.2876 24.9395 14.0692C24.9398 11.2659 24.94 8.46249 24.9395 5.65895C24.9395 5.43864 24.9706 5.23113 25.2539 5.24548C26.0991 5.28871 26.9546 5.10437 27.7912 5.35512Z" fill="#4B5776"/>
</g>
<defs>
<clipPath id="clip0">
<rect width="214" height="50" fill="white"/>
</clipPath>
</defs>
</svg>
