<svg width="282" height="230" viewBox="0 0 282 230" fill="none" xmlns="http://www.w3.org/2000/svg">
<g filter="url(#filter0_d)">
<path d="M54.0703 188.465L105.113 206L94.847 178.437L54.0703 188.465Z" fill="#630066"/>
<path d="M149.992 164.877L54.0707 188.465L49.166 151.8L149.992 164.877Z" fill="#FF0C80"/>
<path d="M149.992 141.362V164.877L25.5703 148.739L149.992 141.362Z" fill="#630066"/>
<path d="M211.088 23.678V16L203.27 24.1088L211.088 23.678Z" fill="black"/>
<path d="M260.788 20.9392C260.788 25.2192 262 134.722 262 134.722L25.5709 148.739L20 34.207L260.788 20.9392Z" fill="#FF0C80"/>
<path d="M70.4745 55.4675C67.0742 55.667 65.6833 56.7876 65.6667 59.9564C65.6407 64.1653 69.0865 63.6148 74.3138 64.0906C78.2883 64.4634 82.0813 65.8052 82.04 72.4851C81.993 80.2088 78.5277 83.6641 70.2568 84.1493C61.6727 84.6526 58.9704 80.7767 59.0022 75.3964L65.2168 75.0323C65.3376 77.5839 66.4913 78.904 70.4246 78.6748C74.1351 78.4572 75.8421 76.839 75.8638 73.0639C75.8876 69.1176 71.0596 69.4004 67.3983 69.1357C63.5106 68.8877 59.4058 67.2644 59.4471 60.3655C59.4861 54.1163 63.4411 50.6327 70.507 50.2179C76.7216 49.8538 80.8213 51.8237 81.3616 58.4724L75.147 58.8358C74.985 56.0268 73.4682 55.2928 70.4745 55.4675Z" fill="white"/>
<path d="M103.551 48.4982L109.72 48.1363L109.58 71.6096C109.538 78.5086 105.182 82.0582 97.9388 82.4832C90.6964 82.9075 86.6915 79.8475 86.7327 72.9485L86.8731 49.4752L93.0421 49.1132L92.9039 72.2827C92.8844 75.4494 94.3035 77.4047 97.9692 77.1886C101.635 76.9746 103.393 74.8343 103.412 71.6677L103.551 48.4982Z" fill="white"/>
<path d="M124.477 47.2275C132.794 46.7401 136.667 49.4186 136.625 56.4902L136.605 59.5705C136.564 66.4695 132.521 69.9175 124.338 70.3977L121.969 70.5362L121.907 80.7752L115.602 81.1444L115.803 47.7359L124.477 47.2275ZM124.374 64.6244C128.845 64.3625 130.331 62.801 130.35 59.6343L130.366 57.1604C130.385 53.9937 129.318 52.4083 124.534 52.6882L122.03 52.8354L121.959 64.7658L124.374 64.6244Z" fill="white"/>
<path d="M161.505 45.0567L161.475 50.2636L147.838 51.0628L147.787 59.6532L159.411 58.9721L159.379 64.3531L147.754 65.0341L147.701 73.8414L161.963 73.0051L161.931 78.4724L141.496 79.6698L141.697 46.2179L161.505 45.0567Z" fill="white"/>
<path d="M182.011 77.2517L175.24 65.8951L172.961 66.0293L172.89 77.7863L166.719 78.1482L166.919 44.739L175.594 44.2298C183.908 43.7425 187.781 46.4652 187.74 53.5375L187.729 55.2724C187.699 60.2197 185.895 63.0135 181.73 64.5591L189.209 76.8289L182.011 77.2517ZM175.497 60.372C179.966 60.1101 181.23 58.5159 181.249 55.3493L181.256 54.2208C181.272 51.0541 180.434 49.4556 175.65 49.7355L173.013 49.89L172.948 60.5207L175.497 60.372Z" fill="white"/>
<path d="M61.0942 118.031L61.1788 103.887C61.2222 96.8151 64.4119 93.7224 72.7306 93.235C81.0471 92.7476 84.4727 95.453 84.4293 102.525L84.3446 116.669C84.3012 123.568 80.705 126.857 72.5252 127.337C64.3432 127.816 61.0508 124.93 61.0942 118.031ZM78.1734 116.727L78.2559 103.189C78.2754 100.152 77.4827 98.2453 72.6981 98.5253C68.2266 98.7871 67.3666 100.791 67.3478 103.828L67.2661 117.366C67.2487 120.532 68.087 122.304 72.5577 122.041C77.027 121.78 78.1561 119.895 78.1734 116.727Z" fill="white"/>
<path d="M110.479 96.8767L96.439 97.6999L96.3891 106.031L108.284 105.333L108.252 110.757L96.3565 111.454L96.2719 125.685L90.1484 126.043L90.3495 92.5917L110.514 91.4102L110.479 96.8767Z" fill="white"/>
<path d="M135.165 95.4298L121.124 96.253L121.074 104.584L132.967 103.887L132.935 109.31L121.042 110.007L120.958 124.238L114.832 124.596L115.032 91.144L135.199 89.9625L135.165 95.4298Z" fill="white"/>
<path d="M159.569 88.5329L159.537 93.7405L145.9 94.5413L145.848 103.132L157.473 102.45L157.441 107.83L145.816 108.513L145.764 117.32L160.027 116.484L159.994 121.95L139.561 123.148L139.762 89.6963L159.569 88.5329Z" fill="white"/>
<path d="M180.075 120.729L173.301 109.373L171.023 109.506L170.953 121.263L164.781 121.625L164.982 88.216L173.657 87.7083C181.973 87.2209 185.844 89.9429 185.803 97.0145L185.792 98.7494C185.762 103.697 183.958 106.492 179.791 108.038L187.272 120.307L180.075 120.729ZM173.56 103.849C178.031 103.587 179.293 101.992 179.312 98.8256L179.319 97.697C179.338 94.5304 178.496 92.9318 173.71 93.2118L171.073 93.367L171.01 103.998L173.56 103.849Z" fill="white"/>
<path d="M211.088 16H251.116V128.967L231.102 116.967L211.088 128.967V16Z" fill="#FFE401"/>
<path d="M241.706 106.341H221.746V103.849H239.426V96.0361H241.705V106.341H241.706Z" fill="black"/>
<path d="M241.732 93.5941H221.799V91.0758H241.732V93.5941Z" fill="black"/>
<path d="M232.696 81.0813L221.721 77.5506V74.7219H241.705V77.1879H232.309L226.847 76.8238L238.055 80.4844V81.6782L226.847 85.3388L232.309 84.9754H241.705V87.4414H221.721V84.6127L232.696 81.0813Z" fill="black"/>
<path d="M241.732 71.1107H221.799V68.5925H241.732V71.1107Z" fill="black"/>
<path d="M224.128 59.9477H241.705V62.4137H224.128V66.5667H221.85V55.7939H224.128V59.9477Z" fill="black"/>
<path d="M221.721 43.67H223.896V51.3015H229.901V44.3967H232.206V51.3015H239.401V43.0208H241.705V53.7675H221.721V43.67Z" fill="black"/>
<path d="M241.706 40.2161H221.746V34.1425C221.746 28.7949 224.103 27.8339 228.425 27.8339H235.001C239.348 27.8339 241.758 28.8203 241.706 34.3238V40.2161ZM239.348 34.3238C239.348 30.5864 238.185 30.326 235.026 30.326H228.399C225.241 30.326 224.077 30.5857 224.077 34.3238V37.7501H239.348V34.3238H239.348Z" fill="black"/>
</g>
<defs>
<filter id="filter0_d" x="0" y="0" width="282" height="230" filterUnits="userSpaceOnUse" color-interpolation-filters="sRGB">
<feFlood flood-opacity="0" result="BackgroundImageFix"/>
<feColorMatrix in="SourceAlpha" type="matrix" values="0 0 0 0 0 0 0 0 0 0 0 0 0 0 0 0 0 0 127 0"/>
<feOffset dy="4"/>
<feGaussianBlur stdDeviation="10"/>
<feColorMatrix type="matrix" values="0 0 0 0 0 0 0 0 0 0 0 0 0 0 0 0 0 0 0.25 0"/>
<feBlend mode="normal" in2="BackgroundImageFix" result="effect1_dropShadow"/>
<feBlend mode="normal" in="SourceGraphic" in2="effect1_dropShadow" result="shape"/>
</filter>
</defs>
</svg>
